<mxfile host="65bd71144e">
    <diagram id="AX6nMjDPNtxN-lmy5rd7" name="Page-1">
        <mxGraphModel dx="1938" dy="1251" grid="0" gridSize="10" guides="1" tooltips="1" connect="1" arrows="1" fold="1" page="0" pageScale="1" pageWidth="850" pageHeight="1100" math="0" shadow="0">
            <root>
                <mxCell id="0"/>
                <mxCell id="1" parent="0"/>
                <mxCell id="2" value="Fibonaccio(n)=Fibonacci(n-1)+Fibonacci(n-2);" style="text;html=1;align=center;verticalAlign=middle;resizable=0;points=[];autosize=1;strokeColor=none;fillColor=none;" vertex="1" parent="1">
                    <mxGeometry x="165" y="155" width="270" height="30" as="geometry"/>
                </mxCell>
                <mxCell id="3" value="&lt;font face=&quot;Comic Sans MS&quot;&gt;Where n=0 --&amp;gt; 0&lt;br&gt;and n=1 --&amp;gt; 1&lt;br&gt;&lt;/font&gt;" style="text;html=1;align=center;verticalAlign=middle;resizable=0;points=[];autosize=1;strokeColor=none;fillColor=none;" vertex="1" parent="1">
                    <mxGeometry x="245" y="190" width="110" height="40" as="geometry"/>
                </mxCell>
                <mxCell id="4" value="HERE THE CALLS CAN GO UPTO INFINITE VALUES &lt;br&gt;WE HAVE TO SET THE LIMIT WHERE WE WANT END THE CALLS&amp;nbsp;&lt;br&gt;&amp;nbsp;" style="text;html=1;align=center;verticalAlign=middle;resizable=0;points=[];autosize=1;strokeColor=none;fillColor=none;fontFamily=Comic Sans MS;" vertex="1" parent="1">
                    <mxGeometry x="100" y="230" width="420" height="60" as="geometry"/>
                </mxCell>
                <mxCell id="63" value="" style="shape=stencil(lVjLchpBDPwarqqZ0TzPjvMfrjIOVAi4MHn9fZpsZs1ol075tsZqZiR1t7Rs9OFt9/S63QT3djmfvm5/7p8vu41+2oSwP+625/0FTxt93OjDy+m8/XI+fT8+T3+/Pl0jr0/fTj+u3/BrwpUsyV1Rwf2ePlHR+veDz1P8YX+8ia9BnB/ifZSaCCBL1gEQokRHAE1aGW/kJLX7gKYSxitpkaIEkKS0ARCjNJJ0w/fFAZC8NHalJtEAqiRygndO3NiHnCRkeoSOWRcvhSfxr7EzoEgljWhR0phERaVJ1mi1jp1rQUq5D8hZ2pj0TR1WEeisjq1rVSK5k6+iaQS4Xrh1gF9kncQTQOr0n8vaJBNBLARUlGawJEaRFlm84QWo50lJs3gjBjCL6bNnN8cXyawDQWIYAbmrYx1Q+n1nQKInoKRhAUiBAHBCtQBWUwUp1ObQCCk0LiwGRCSepLDJsUoJjWdXylLHK8GTKtG/JiudpJLZCWjc2OkEJTBmzynOgCyBnIBZE7MFVCbOtROY6Xm14w0ATywJxl1szo70DW3LtqiJqAdNMPFwbUJVjKpRzVBnJVqAFsf7g3eeqdN3lt0wm00Fn2yFoB3GOxhSXIgtkSYj57Q4gc1z7AfWwnLX6zpArWfDwxjvdM0kI5ECAG2xMQTCOwBMH0Akx+T8YYDvG8jNYChM/85aEuY1W8RgenW8Ukl0/mPtMuyukZY1Ozt8apVGtqSMaWVO8H0hWNdPFD8mjbWKLT1IUReLG9ugy9ICGnVJXCkYHw7UM0rogrwdbwzg+jCbN+jaN7N7ZdWx02BXZTaJQWDeAkAN1jjfbXdeDfnWAPabmY5hxeKDNDPS+Zqndn1Wulal2Le6OWN+n2yXGBCVDQbsvWPPXB9FdwvqTHwg+WbtjvgezzZzdDhXG0/yzc1uF47mCxkaR3WUcVCNC6aeialsMXUCfU396Ivz/+Px8P6W/rI/HKaX/Nv/27d6fDT9IqCPfwA=);lineShape=1;fontFamily=Comic Sans MS;" vertex="1" parent="1">
                    <mxGeometry x="287.9817149866485" y="339.4612795730825" width="17.398447168276874" height="48.477446903683166" as="geometry"/>
                </mxCell>
                <mxCell id="64" value="" style="shape=stencil(lVbLbhsxDPyavRKSqAd1TtP/CBCnNurageO2yd+X24UUU9mdILd9cCSSM0Np4ruX/cPzbgru5Xo5/9z9PTxe9xN/m0I4nPa7y+GqTxPfT3z3dL7sflzOv0+Py/vzwxw5P/06/5lXeF1wmYrMoODelg9cKbn/X74v8cfD6SbeC6ViAKEQp20AZ5r/3QA8U5VtQGJKyQBS23I1vjhibzdoO67Gi1DJJt6RAxXXQByH9cWD+DTmX8hnEC/kbLxPFCsAKEPVUpCoMuDM9Qo7y0oa3iLYmqNQRkX09TppAlmrkbLdIWdyQBZVWbVKVeIj4E1Ky7gDPNxBInkr7dypWQf4RmwHeMqAiCJUB2kHiiClUkZ7Ro/NUEZxs3IfcUpWGr6SA9KQ3sQGqCS4q852lYlBBUpbGu0ZQE9VFwNrjgTZOVKywkvkkJ1V2cP8Us5AR2fv2I6GQAGbrVrvMLcctwDZphQ/qUHI2xGZEpzyOsNGd3LTydaQjAOgwmNBp7BY2tSdAeniqwD97dMIYFBDyk34HcDQCnpUVlu0uimCokNsXW8AyW2J9ckdKNuilcoMDjevh6F1z83wX+8rOaul9+NlvUtUhowKHMM8DqTKzeDrPRpJUOIRa+p2u74OqAo65D6oIsJ58eHozKXdBzbi42C1Cq87vk3DHs8tw43+iM0nlnZWr8brOWvrjaopUO9XL4Sfx+vD++3z6XA8LpfX2//jbVU/LTddvv8H);lineShape=1;fontFamily=Comic Sans MS;" vertex="1" parent="1">
                    <mxGeometry x="294.40051459996243" y="350.63050686512156" width="24.022361374408273" height="7.546524945953839" as="geometry"/>
                </mxCell>
                <mxCell id="65" value="" style="shape=stencil(lVbZbttADPwavRLc5Z7PafofAeLUQl07cJwef1+qghSTlgfNm7LheJczw2OQh7f90+tuiPx2OZ++736Nz5f9IF+GGMfjfnceL/o1yOMgDy+n8+7b+fR+fJ7/fn2aIqevH6ef0y/8nnE9UJcJFfnPfBIDcfh38nUGHMbjFaBWKmwBegIAuVHsBpCYWrwPSJ2kGUAu1Cu4gSlXA2iRuANAoJQsoFAR+KRaDEB5QzekTDVYQCbm+wDRGyytvcKkJXqWeqdS7gNioswe0IEOQVl3gLZktQ1gEsdSoQCelL1uPVIGMgix9WpTb4EHaXy08UIlwffY+KpWRAwxRatBzVQapLRZSqtQABmoaMkBAjVwg9rCPynCG9R4JfgnNeBUtXaxxVMLVcDqVDxOBqaScXk6nTMF8KSpAdgW0zoUOlUSZ22hiup5Zf2qPCGtaamtq2qLIGntosEmHZhhywhqznxzBWgZQVtGvUkC0FT8bFCWGqxPNxra2tXuxYfPxK98LPElkwARkldZrVhQPWu12QcJrgVhb4sPUbadGn2bb8uV2wrobLWSxSWn7emsPrWVwMvBdnzxLZihrdvN5MQe1bkao4vPwKKdF4FWQqmCdtdVYpuvUAYTRw0v9vcz3EWminK9C+p1VbNrAoEiYGia2g6Q4AKmQ5ht2etUQUNHN4/kAJ0YkfTZnfA/APrxsYK+jIfDvMFe/9+vrHo0r7vy+Bc=);lineShape=1;fontFamily=Comic Sans MS;" vertex="1" parent="1">
                    <mxGeometry x="288.3460915371775" y="354.3529270925395" width="11.57013313484712" height="20.002549591344728" as="geometry"/>
                </mxCell>
                <mxCell id="66" value="" style="shape=stencil(lVfLctswDPwaXzEkwAd4TtP/yEycxlPXzjjp6+8L1aFqQtJmepNlrLAAFgC5k7vX54eX/Y7D69vl/HX/8/D49ryTTzvmw+l5fzm82dNO7ndy93S+7L9czt9Pj9ffLw+T5fT07fxj+sKvK640ymlCcfh9faNU498Xn6/2x8Pp1j5QyoN9I9Ft+xwo1sE+JhLeBiT2AI6UAUASaRgAYj7bNsAYl9GDKKkAQKFcBkBSCgEAMlUeALligBK3AVAypQKCll6lDqhCBdQtRQ/QQAw8ZO6MZ0DuUllXRqYwKkMb9FALRQeoJCBLxji4GAoJCFoTJfUxKKBkjMMC0ICWmpCIp1QQoFBtPmhFAKPUfFrfW3AVEEPwlWuRGHSQuUijXC2sAPLaKiXnIVEB2rC/XVM3yyuiZDGMLTclDniYxOko4ZYzMbWFh/e5sCXXJj4GBR6sI5V9lhLyEBeUmBTUwQDZDeMIC1eZykjpox61ph4LZ3KtYFZW7UK4aYgM9K3sg55aDujbCOQFQMEKspw09ZQSKJzVtS4GU0Ly1l7XGaDUkIfWx9BcuNArswWoYwwmjQTqYJR4Ib6IAJnEUcLzfgIsehouiEhxHN83o2p9aaVe2JumZuBCzEXwaYrAQ1Q/yXRW/Lr6qIxZqlhLTHW0LzaWQASBdJRe4T4JN+zdrM/zmNqwjyOfbN0BJsaiZqmQgvxwb/bZPvZmWp8XJOO4EIsX8I/Bzxf7RASErMJtzGiscJOw9ckoushwV4nFMMace9LWT1bFr9sAD7il+ENJgBIq6mcF7jLbIgs+6Lgw7bXi7AuYv7ZD2liySIIkUf1WY2LEX73mpFdw3b75Y2TC8S7ymYnR92uf/XMPY/vir1RY0dVOEc3Zo2VjSz/6K15CevvfK+GH9vbw7/75dDger9fX2//9fdVeXe+6cv8H);lineShape=1;fontFamily=Comic Sans MS;" vertex="1" parent="1">
                    <mxGeometry x="320.618769896824" y="336.6929161584842" width="20.664935758689257" height="52.765872277342936" as="geometry"/>
                </mxCell>
                <mxCell id="67" value="" style="shape=stencil(lVbLctswDPwaXXdIgM9zmv5HZuLUmrp2xnHa5u8DVbUtUvZ2eqNlLokFFgsO+vC2fXrdDOLeTsfD982v8fm0HfTLIDLut5vjeLLVoI+DPrwcjptvx8P7/nn+/fo07ZxWPw4/pxN+z7haUeuEEvcxf/EBPv758nUG7Mb9EiDwLUAVxd0HlILkG0AsiOQGA8TUAEqCJgJI8C2gOuRwH5ArNLeAgERuSAW15VAzMiEdI0p3Q0UkIQXfZ+lamZsAyUihBzh/H+AjQndDQiI3JIhr9yuE7HeopS1bpUpy59Mu+wMyIRAgbfzFISghLFBpADkhZ5JSRW4ZZOsFUmXN0JZCFkohemRZAYgsUoSkVUiFSNtquiJdSNUs6bH0aY0MUKDa162QkEpGaHvBhPG3MrcBAteGZMpjlb4mcSFt5knJrXrBmodIIySEthm8c3BMG+aTKwcIJK++rvrNWpwZK0rnelZKklaBtHUzl4ykbhd+Cxv2tP/X+4XEL+doL3MhQ0j83vcANZtnBlB7h7EjWJXFTDi2FOBZRlNvSZHq1DTRtb+eJ9dt1Rm/jgACGyI2MlpJODo4Yz0PgOt+pulkCpb+fJLPXHpvsfjZ5E/9TFNqdmYLXvv8E75TQ3VORPO/6PGFgjwx+P9/Tv0bYIvr6+1l3O3mx9/y//61Z5/ml6I+fgI=);lineShape=1;fontFamily=Comic Sans MS;" vertex="1" parent="1">
                    <mxGeometry x="338.1203933140155" y="354.47015032705826" width="5.446372642459688" height="17.556284650664374" as="geometry"/>
                </mxCell>
                <mxCell id="68" value="" style="shape=stencil(lVjZctswDPwav2JIgudzmv5HZuLUnrpxxnGvvy9YlYoAKZv6TZa1wrVYgNrx3evh4WW/C+71ejl/3f88Pl4PO/60C+H4fNhfjle52vH9ju+ezpf9l8v5+/Pj9PvloT/Zr76df/Q3/JpwoVBIHRXc7+kOByrx753PE+B0fF4A2JGPChADcQOANN43AClS9O8D5H3VKUBO5AAgOeKqACWSB4DsqGgL1VMDQedGLWgLiXIBgEKu6BgCxQAATJVtljxwKTXKOugoLjkAkCTqGFhqjyw4ck0BQqMEKh1XdfCVWgbU8IMIs4VMDNIqgJB1DIkSqLQA2NssQQuOog461mFzExDqoNpcOEc1AYCw31RaCA8s+LZBDQfq4COVZgERUEMMmA5lKiBJc84XEcAcUWCbIgeaQXikqxyFqSDgFVFjhEUW2mnNi54S6AR5m5YLbuSB/5VY51M6jQElPFtN5QzVQvoq+FsAgYeCLl1CJRMB41XMIEedRGWVVNz8QetRrxoaJG5o9IIWjIJu5DSPOu9QDGnQfklsQKTOJMNs6ZwKCidl0hL5QWv6FVd78wMLeYjPUl0A94R61ebon9y802vVCGqFU0QyrnunC/CtzwP/3aDAzFNPBfgvrNPxSgYSKHGkrDnkE9QiH4b5efJTQiRN5LV4Cc0BIfp2FM3zDo39OqTqzR9UrzzP+DngPDp7EyCbkNdNIzlDXVbdWJ0WK6cHSlGzDUE2jQamfvN2gAip0ULY0mpiNjwxq22zXMfys00LtyJ2yXCF7CZ0EHXeHLbTVChrnyQstH4VZ8Vo4eU2mcQD7ZN4ycCnuGq3xjAIEXkza6vwC61T0m9akISQFdBP+tcoXv5oOypGIcNI9HZaB/sXc62A56VbzAksQbLy0If5eUkpVDAzo0Qh0b4pxwizKji4KhS79fe5C1pBDi66m2VfcmhbC3ZREJPoAOlXJx0BoH3NF9vN/VgMWCqam7IFoKkjLG3VBo3OUlK1VmxWC1rY5gVwUWaPdpdbT/7/AZCLtw8NT8fTafpOsfzffpiQW9NHDb7/Aw==);lineShape=1;fontFamily=Comic Sans MS;" vertex="1" parent="1">
                    <mxGeometry x="346.695306771539" y="346.7782432355865" width="19.769481364175686" height="34.16215512848986" as="geometry"/>
                </mxCell>
                <mxCell id="69" value="" style="shape=stencil(hVbLctswDPwaXXdAgg/gnKb/kZk4taaunXGctvn7kFWlGpKN3ihpIbwWCw788LZ/et0Nkd4u59P33a/x+bIf+MsQ43jc787jpZ0Gfhz44eV03n07n96Pz9Pz61NH9tOP08/+h9+THYGoG0X6mF6wQMufN18n/GE8XuEjkhp8LMh0H6+oweBDBmfn/wSxDgpKvY/nBCnWAdjBZ0KoBr9U4Ca+ZESbQESN9/FVkGxBFZHv40XmcJf4BeIUSBPIGjAhi2ugNqLECOoYEKoYg+z3TCIC255liFdUhVgPlZGS07XWhZVBRfJosfXgG8TmQTchOY0LDErrpKtT1rQmRq+qkzOtU+5tczIICHHDCwdfIBbfiefEE8qc3hWznUlon3UlFbMW3K5PBlkW/WcyCWzx/uTXBLaT7CuLZCTbgC5djjRqRNlqo5OxZgTroYuvE9JtAy8kBdmQUmuyx2raLISsLu20QqwetelO3kaIENuHppnqlKk1YiUvUhEcPaptlm1IyigOtQvPcrUYCMgJKTeqrbhBPltbo2q2LtRdnJ2ddj61sclrXZ4X02IQ5jrcEYBiqyRttTgDvWFGXXbjX3w7/LtnvIyHw3RNuf6+vpe0V9Odhh8/AQ==);lineShape=1;fontFamily=Comic Sans MS;" vertex="1" parent="1">
                    <mxGeometry x="354.44137736030416" y="336.7919263640948" width="4.380997463273209" height="5.3429909860417535" as="geometry"/>
                </mxCell>
                <mxCell id="70" value="" style="shape=stencil(lVfLctswDPwaXzEkQPBxTtP/yEycxlPXzjhJH39fqC5lE5Y2k5ssY0lisVhCG7l7fX542W44vL6djt+3v3aPb88b+bJh3h2et6fdmz1t5H4jd0/H0/bb6fh+eDz/fnmYIqenH8ef0wq/z7iYSeuE4vDn/CZQSf9efD3H73eHq3guFGWIF0ptPT4xtTLEV2pgfVVqPMRHpSrrgBypjhtYBhIBoFDKI0ApgSMVJm1jysYRyLnYDjoCMuW6DqjRJ220/c9qGaCdxBnQSAIANNIxaSNawZEaUx6PZEQjWluiNiadc99zGTBz0gElUgR1aI14PFKpVHkdEEOgEEbxJRJQuVa9mKq9QUkIlTgALC1RyKuM/dNKX2KtcnXMYTok2KHaAUZejbgMeK3c5T+33IW4ZYHXhS0q6ohEWTxAQFebFJwtWdYCCpFvBG68RpBDrlTGUjeFTWo78GgDJnlGvhEpuB0Yel8R39XNjAHVoZAWD2CkjUg5eEBAAF0AIBswucbskw6gSS8pzgChgHpUSMXXIaEdhKrTkkJ3nco0Go1piZFZ2n0wep+pVRFL5YbWBnOo5jM3HddQAzUqfAMAORTtXnoFQP49XYs3xlRADiX0hryiVYH4rEV94XJX1xrADRsmDWSunwZYizpaTfAB1SF7tdoVxGiH7MVnpUxArVY4Ha+ggjvOzFjc1W5yBHWw9dJYuMwfWaW7UbTAqz2rZ0mxL9kwEkYzTjZ/AFo1d2OcZzJcOJ2HkRlgky5IOuW+3jxX1j5pLgLEOs7du63PUMuzd/beGhNFIA37W5y88bDuSc19CFw+Tx85L+Foagi+1xTeVeYWrsJdhSvhbtSzawKcPVAam4bhjBT72DgzDydP9neaiQmIM3khBOiLxZcpQBWYjfvVUZkiex1bPKLG6uLjGYjss1+cH8fbw+Xz9mm335+/jq//95/D9ur8KS33fwE=);lineShape=1;fontFamily=Comic Sans MS;" vertex="1" parent="1">
                    <mxGeometry x="357.6716688359329" y="332.5709498603393" width="21.506324263812196" height="60.309554957060946" as="geometry"/>
                </mxCell>
                <mxCell id="71" value="" style="shape=stencil(lVjZUtxADPyafVVp7tEzIf9BFUvYCmGphVx/H7mMFo9sd4o3451mdLTUkg/p5vXx7uV4iPz6djl/P/4+3b89HtKXQ4yn58fj5fSmT4d0e0g3D+fL8dvl/PP5fv775W46OT39OP+a/sOfGReZSptQkf/ObwL1+cXX+fzT6Xl5PhOX8bwCBAAqpRGgN4QOAI16HgGNcgUAIR5dSJla2gckNgMMkCNF4IMCehwBQj0AQKA03lAqNQx4t9gANVEEUUqRwmhSFXuzByjjDS1TwgCpI6BTR2FVwJjpHqkCLk1OO0DD5CtUR5MkUAE+hOjZLUwCfCgkeWUR4B4T83he0wbyXCh3H9ME7AnNe9yECoMQJarskyAAoNzOaeVyAQCtxjFGEikBn3OnOlK1izWR7SAJ1e6jiqqndpIxzQ2nTWPC4w1aPRHkoWdL0xXQra9tA5rvMVVNAnlQYro+qYAKTJJEWVY3AJOkUmzeh4wA+vOqxyQQVhFqI/kam5F7AHH1EGCmFRBHk5rSGwGaNYgrIFmb2gYU4pHeDauJst8pYisUEPm6cXMBiIAavRhzFia9a+Q2IFEQDwiI3sEqeBGlgG5gI8IicYKcXrUZpQYKq5pURpOUfAWIgzpdxigpvSugRq8bJSrIaTFJXpYoACg1cvUAyCXVh5UPSE+U3k18lBjdIH4y0TwEQL7AK43TVCfUyTRPjn0RqrT2GZcIZR9sfZ8FaOZ8F7g2kj26uuFHFaABp7WEmwN0G0u3NUts5FzMMlDkNIij04IbUyk+D8oWJHK5eZETHKXUV8vAB1u2x5NueVpcwWDODTo3N+81rAgbORd5gGE1CVwkmoFk6UTmmRFMxPYA/oarT9sA8fqg4wrSaZ1Cvex2qA+6gfFKH9AYqoD1JBCQScHPfLrPJGySq1DdmDrg3uTDCNCdDClQ3Nr6Cpq9u5fdVGBv1UzHERCv7XmP3DxWwxQGBNAgum094gHLV3SE24NYY//4GCCAqeJ3jQAX9cBWuXZeuyzydkVTtha4t+25+LNNvHvRzM2dh70o+88AuNlpeoO3H+09U6fo3n5M0OrtgduwqmDx8UfNmv2wHeD4/+lvSf89rw8fH64eTk9P83ev5e/+Q5e+mj+Spdt/);lineShape=1;fontFamily=Comic Sans MS;" vertex="1" parent="1">
                    <mxGeometry x="322.81566174810837" y="408.12825993338095" width="28.335276238147728" height="73.56874917614996" as="geometry"/>
                </mxCell>
                <mxCell id="72" value="" style="shape=stencil(nVjZbttADPwavxK75J7PPf4jQJLGaJoUaXr9fUc1VvVS1hjpmyxztLw53IO9+/Zw8/XuoOHb68vz57ufx9vXh4O9P6genx7uXo6veDrYh4O9u39+ufv08vz96fb0++vNIrk8fXn+sXzh1wkXJLcFpOH36UVMYvb3zceT/OPx6Uw+StNJvkmN++JJWp0/T8WLVJvEg2jZF2/SvHgIRPcoUZ18Jp+PJkmd9kWJfBnHD3kbCl6Wh+/SJA/72778cvwsH4MYcSfcX5wBiTpUq5Q+A5oYUcmCtDgBVCVVAkgS5ozAmYHYYFXyfIJFSSzloNJsg2VRolKCT1zYmhQSt1SHiQOQkNZ9H5DD+N4KQGRIpmbzkU5FOjE6F0lzHacmPRFAl1AmAJRUEumyen0FRFo9xSTPccgqjahUstQ8A5JU4qVSff3ADZWp1EeYVkAXJSrVKH0uoKIjWS4DkEsOkCWRXKrFR7q00WIvA7rYnK1VJbImqT7SNUskkW7w+pzeFQnPTqg++aBkIm7tYZT8OkXWor0M0NHnVkAcjecyAHGYI9144HqRmD0gM0DbTEKMCwZAqkUP6CQOAOQ5cC2LkTgA4FWqtFUC0OdIt07bzAKY3YrIZBa47ptx58kHQJmN7ldtsLmA8Caw5ENjLB7QeaRzfiMg1o1KmQCqtLwxmjQB/O0GO9xK03szRRG4wtwKwDyyltS4otLcBJbkI50PgD4HbklvMqfhVl/TNtJxD+BVsmu5FDaAwtM7ua6RaPcGwI2shgHAjIbXN3Fg6R1D8Cy0x2tGuECgexpL1+4HNbpn5VY7Ny01xbtAcG2j08VhCbUjroEvA/+BAL03b4UxQNr0gTqa1d6YixvHKgld23R8nMloH2pSnUpGVUI+Z3cCp30YzD7D++iflwlN8xwLSgZOmZxboSRjQNX8Wgm6wXpZ3XBdMKDCiaUbQiCCjAGButqsEs7MRKWFRjpi2ehyCfptcy6VQtkDCL7jJyXRjSA3P9sXcsyXFNfAS6BTC2tQcgS/0g0ZO4zzUsZMIW7FKqfuBKWbWTLPHlKnrQzraJndilXOSE1j4XXraFJqtG3S29aLhb2l3fF1bOX04qH6XFp2cJJ8ul4zrFs+hjdpAhp9amimVxuxDbJ9dvHQyCCNeYyoFRA4wLwNsVOjYxwk7+zyhA0t1E/z8pnVz9jCzhRindUG014tNlqf0dfzEjRGNTwJ1ZU/7ci7ngd5dlcU/byFPKuc4GmJ8haJMnD21ivybnZqoXtx8NeNyssM9MPJK90zNkQPbzrVf5ufnfg/+Dkb6+AnO/KuS6DmMv3+2+6er8vj4d9F9/3x8fF0T37+v78Yx6vTpbp9+AM=);lineShape=1;fontFamily=Comic Sans MS;" vertex="1" parent="1">
                    <mxGeometry x="330.05260042056034" y="411.9934165383762" width="166.56519905592967" height="25.010203763300332" as="geometry"/>
                </mxCell>
                <mxCell id="73" value="" style="shape=stencil(lVfLbhsxDPwaXwmJpF7nNP2PAHEao2kcOOnr78utK2dJ2xP0tl5rViI5w6E2cvP6ePey3XB6fTvsv25/7u7fHjfyacO8e37cHnZv9rSR243cPOwP2y+H/ffn++Pvl7tl5fL0bf9j+cKvI46ZUllQnH4f3+RBqf598/kIeNo9rwGDcncAyZTHdYAopeYBnVIHgE4lO4AqNb4O0ELd71AaqVwHlByPVAdVEHQRyv5IPVFPcAepDjASCQBojnUYVocM6lBpJF+4lCiBLXImDVtkYlC5Ts3v0JVU0Xr1WW2VGJQhJ6qhDI0yAih1n1UrtIAI2JKunkqNBghhyarPkbFxAO4Zu9kfSdJM27VCd3YAFlIgBzVq+hiyBQ2yVJnq8HWb+ri4vnXKPoQMxdDzpP5cn6iAiHuh0cJ6xFNTCnNYz6AEQ6M4rSGBGo9G7BPKMF4TIvvzK1VwnpUOT7ymDqRsGwSWYulbAOIPZEoagEKWIQm9gqkAClkJ/vXPEwCTtNfpAStAQ72CZ4grAIMdjKUiMYZcAKDMEFdZUlDnJlPp77pRwFNbX32vqNMaL683F/M6M2cERWinZvjOU/R9s6TgmwnSzrp5KWF9QnbQY+dK00Yvk4ip97C+IZ1VkhziRecZ5k8+P1ZAROpBw3+/4vMPasH0oV2O8z6aplAvAwqpT6hRGp6onMkSA8yA1Qv/A05UmRI5Acx+AOlKjWYjdU4ylwEpNi8VEuR/Oh37ZPoZNi81mgVdJjjSSosGVTscOC3EoHxLNByaKzW/g4mvgSxxm1lf7dDR4FKiSVUbvtAO1gx94YrO+e2yrUmcQ2yUQVkakUo2KzWwgbUvH7Lpf4AIzlzWfL+AIqQ49NsbNG2mOObkDvsXz6ljNacVoDU9c8AKC3DWHnOZ2rsyjscLQoFzlN0PKkcAasA2jkdLLvCSYwGGi5oBEKuXu2iPOULtaCnaWREaAvz3/fdjgD28X7cfdk9Px9v6+v94PbdXx6u93P4B);lineShape=1;fontFamily=Comic Sans MS;" vertex="1" parent="1">
                    <mxGeometry x="255.7519611908226" y="517.094514846787" width="19.868862423241378" height="38.13740753133109" as="geometry"/>
                </mxCell>
                <mxCell id="74" value="" style="shape=stencil(rVfLbhsxDPyavRLUWzyn6X8EiFMbdePAcfr4+1J1d2PS3gkK9LZea1biDDmkpnT3un142UyRX0/Hw9fNj93jaTulT1OMu+ft5rg76dOU7qd093Q4br4cD2/Pj+ffLw9j5Xj6dvg+vvDzjOuJWh+oyL/+vqEgf158Pq/f754v1lehks36kCm1dUAp1KsBxEgCdsiZ2J4o6Q5hHZA6NXukzNQ7AGTqyQIapQoAgTobQFHawJGikNigi1D9AFAMoDFxAkcqlIMFNMoF0CrE0QqdqGagdKVoae2VCjjS+J6ltTeKgNauRyoeUIFwkqi7GFR7cCRZOJkBwhTRDpreVjiJsB4UIPZIkikCHaRTsbkkC9G3Aaq01UGjEkCrBGIXg1BEwhVfDyMqkK2dKfEVAOzQypzMl0cCtGr2F2sCyhuDoKsqnTytyJeqBi1euIScr1JwO0RKEQDUSV1qMGUGQQeqVjhN7w50aBqiM+8G66GHK7fXEgUsjb/FAzIADE6yjwG5t8qUbS6pLTRAq1y5hiY88qXAaqUuXdNc5mtbBFdBhSpQToOoTuolH9doqq6oVWoshAcoTchc1bdco37n4T8htFW7NqdECIgiagdxPMU5hW9rFzyxalYFHCmQ2ARvS53fXH+VGjVTAekaKDSzvnTY45Ifl4qWIHIZf/5coARKkPO91KBnhOYjSDzPT7c106ZrQxhvgMg6LbmGpXt2PJq4doIbXE3e9gJ0PbX6Zh2D56a9Ztyu+fBsamu+3ditZ/D9lv3MgMusaetrbj2cq9iXJc/z69rglqPjs4Ci1BJ0ekUqQN8xN9pZVSdF5HWLiSxFMN8h1tY7b6xwVhgWYvlpcMb71zvSx+v14f1C9rTb78/3ucv//QVOX50vf+n+Nw==);lineShape=1;fontFamily=Comic Sans MS;" vertex="1" parent="1">
                    <mxGeometry x="275.2514830974703" y="511.1033238346422" width="16.61054715307225" height="44.58941454620321" as="geometry"/>
                </mxCell>
                <mxCell id="75" value="" style="shape=stencil(5VjLctswDPwaXzEE+D6n6X9kJk7tqRtnnPT194XqoWpA8ja55NDeZJlLAMQuAGoTb553d0/bjYTnl9Px8/b7/v5lt4kfNiL7x932tH/Rp0283cSbh+Np++l0/Pp4f/79dDetnJ6+HL9NO/w441qkFCaUhJ/nNyzU8u83H8+Aw/7xAlAjhWIBlYJcBxQhthZELQBAFgpsAJGp1OuA1ClYC7FTTcBCGh4PgG7BBcQQqbO3gE6pFArJAhKVDgCVJFuAUGoA0ClWCwiUGSROSJrNQ6MGjrVmajZoqTAPdT71GVCoA4CSrxUPQNRolXr0Lkm8DuhMNfigGbjU0/B4BnTKIA+9UrYuKVsjyHTvJI4aqkEA4BAW/M5UAfvURHXcaBQQQIOwPqVKCShIjylaQG6UgIJ6oGhTrQTuIOqmerHsa7oFSEQtxN0C/iLqRNlWgT5vsV5nkq9kF6lZTx1Ttj7pSTcg0jIEduFSBIIQLyBNTAB60BLh9mdicKjBF8qmRALyYV9jWobNIZG4/WXwZJ0VXmwtwPUch1AGoM7yWwdoWV0AGKRYQ6jRA1DR03oSXQwM1ayNwJFCtSEgaG01rqc3XCXjQs0dH6u6lK2FHikCXmvQbmroWsIA8fRY40I5GUmtUbfU6w26pNTwFhrMdCOxBUm12YGBuHAowX6rSnRJENiqFl1hqnfAn7CgURmD1hX/g1sfYa0ovnOqNjuSGo+/L5SDJhgdNFPzAFTtphDCwgLSpoye9EpA0iNZiBmRSIfbZFlU05j81gHVp2GaLVEawujcc2vOUDk63LqBRBtdB8f6rwy3bjD8P4Zb59K7DLfAwnsMt5ona0H5HdDouUi1qrYibhRPpsKwQ093YlsFSh5jxHot7lSchQTHZ5nb6xwDvqbr4OMA0xUAA/w1vcJ+qNVYHPsqvEQr15Ktxjwfw3o1Fs9vFjif66XF1ZkMmaF1yVU+hjeGyp5JYZT/9fU6TLJbj/yv1WsBr9eO/CZ/pq9DPl5B65V1dp6XMVleK3nJNQao/baY/zPeX5uA6+cjgVf3t/43KMvJf+sPB3hf0wMqjtKMLbz1+9wrAPrw53Pgw/5wOH9NvPzffz7UV+dPj/H2Fw==);lineShape=1;fontFamily=Comic Sans MS;" vertex="1" parent="1">
                    <mxGeometry x="283.51897608300715" y="510.9939653953586" width="18.44712145543829" height="33.05333982243802" as="geometry"/>
                </mxCell>
                <mxCell id="76" value="" style="shape=stencil(lVfLctswDPwaXzEkQYLkOU3/IzNxak/dOOO4r78vVA1pE5I2k5ssYwUCWCzAHT+8H57e9rvg3q+X8/f97+Pz9bDjL7sQjq+H/eV41acdP+744eV82X+7nH++Ps+/354my+npx/nX9IU/M84zBT+hgvs7v3EU6v8XX2f70/H1zj5U8jzYM3nZtudKPNonYr9tHwuVMNhnymHbPhVyebD3jiRvA0SoGABTBRHnRN6NgEy1bAOKp1QHQPDQQ8nkRg9BKAIP1ZOTsQi+fWIdEInTCEiUIwBolkYP0VEGda6F8hhDTFTQkWr7XidGj2oV4J2zaUrSir/losQBII4qA0DnWgfoKRMAcKtTZ2umCILQUsfRQ2GYpuJae3WAdiBooOzJj0HrITPIUtI6jTFo3hwIOgXibAHIg/a0ydJdLdcRkcQvXCDZ0KjNmQosNRdKoy5NxQcdwUJ1bCHtkYCUT0hGumoXCgLkxZG4Sc+WtspIJhUGFEMMTRo7wEF1jWJ1ozoo90mnR1kAQAwpNq7dARLykFvW74KOQF1TpWSOFCgDgDirTJN8Ai4pQIyHBMmnR2LTo6oLqOWUfIZLBfZD4gX5ehrWK11bTu4AaMpN8r5QgQIKp+QLyQIC6jjN0iJoD3RGG8imVSiDGLRFLTUSBdRxOqkNoCd6S2aKEbIAG0iFLJm06ljEyvc5gLLVbGQ6gioCSGvIPuRqq/3WCKpmKkaqCCBtpPW52+V5HaATZTHZUU8rII3k020DzSyd42YCxV77rTWxmo0pUMRZMlxihg0kKpVmrxSYJR3UZmT5CuugbDXLvVflA0GHQM4APpB7KuOJMlx0eWnuwLjS1hozKm1TWTXXZXAkUYIS6Zo09AKTAMottlWGq6SzkzZQAbX1TTp74hv9NjJj2OyhzvWq3y6FSOWkDa+buUf3HXtVwMug9zaTrrFu3f6TV9qP7fXhdn9+OZ5O8/X7/n9739ZX812dH/8B);lineShape=1;fontFamily=Comic Sans MS;" vertex="1" parent="1">
                    <mxGeometry x="302.05569673852665" y="498.4314419834084" width="23.709056926673888" height="57.97278690170515" as="geometry"/>
                </mxCell>
                <mxCell id="77" value="" style="shape=stencil(lVfZbttADPwavRLL5Z7PafofAeLUQl07cNzr70tBWEVLyWP0TZY54jnD3UGePo4v74fBu4/b9fL98Ht8vR0H+TJ4P56Ph+t406dBngd5ertcD9+ul5/n1/n3+8tkOT39uPyavvBnxuVKKU0o7/7Ob4Ty/OLrbH8azyv7IpS4s2dPNQBAohQ7gGfKfB9QHTnfAzIVBwAaQOlTiO0T+4BAtfcQPOUKAImi6wDRUUIhFXK1BxTiAgDVAlIkyfcB7LRMfUyZqYBGqAvfu8haVwEAId93rmQYU8iUeg/qM4AySW4RrwAVhKSTENwGEEGZFJA2IYEctA99ztrKCCIScub7mTywd8Q9fWqEbHAUjX0gBrMdyPejrexIYCrYUTEJMAUQEFfKxoPGCCqqJS3FAjzwEPTvDUCAJgX14G0ODsxdzJuqenIgh+QpmkGVNlj7gEBiqKCaBOZCPdg+qOgATZoExeSgogPKOkmWGe2KR4nJb9iJhFic7fRKpfZnYy+mBHSSmZK3WRdQpkDZ5LCI1B2+2elOD/hsVFj5mYAgLWxcDRKDrpWmuKvRzqhAOjUb8qCmTYC8AYCIxLcAlrUQoQedI0NPXTwB5BCCXYa62iryEKzK6/Z84MGbhV4ogDbrAcHkEBfhvJc091UK2mhEnkoiHUBPMWhT6fJkc7AqbWHvAyLVvtM6jYw8qCgaPi+nv/3h1l3WhxSgSqp97RstMGVd/9lk0IR8PwFuirgkAMmpFTJ7wcGzbWDLfgfPO3pAMkPhWoX3JVuaGK7swfeTa4L+ac8g35SIxdhHkK/SUJKpJwPW5E09MY9zsRzA5/L/vbw8tteHz5vS23g6zRet9f/2ZqWv5luZPP8D);lineShape=1;fontFamily=Comic Sans MS;" vertex="1" parent="1">
                    <mxGeometry x="494.8666023411781" y="460.7503167135924" width="7.5426561855707215" height="49.64045398552595" as="geometry"/>
                </mxCell>
                <mxCell id="78" value="" style="shape=stencil(lVfZctswDPwavWIIgudzmv5HZuLUmrp2xnGvvy9UlYoIWdvJmyzvksSxC2qQh7fj0+th8O7tdr18Pfwcn2/HQT4N3o/n4+E63vRpkMdBHl4u18OX6+X7+Xn+/fo0Iaenb5cf0wq/Zp4jLxPJu9/zi+oox79vPs/403he4QNJ7PA5UCr7+EKcOnwKxGEfz0KhdoQYyIENNALpCSFQARHokUrpCJIogB2kkMsdwVfyKEeZYp9UL8R+nxAT1dAReNnzLiFFioYgVN0+IUtL4kLQvIEjaRv8W28hkGeA960NGt5hvLaNM3gnAK81ygafKsAXG7AnRufRkvbra5+CGiu+ct/YFNF5qi1xJQYVVrwRGjMlIBwN2PcH0pbIqMKJUt+lHMmDHtKS5WwJFdXMNyGuCAURmJwhhJbm++5SKSYbtE+AUDbC0T0xgfs+XVbYw/u+7zRHoM4agesjkCaMPV2KKQJlhPd2fUcBxFvVRyzeofW1olaXAsy0qjcaI2ol3GvrKiY/Aes4J5N/NM/YLfG9F1jwBsnozMF5oxGkjVejiaYp4n6iqQoy8paPErJK3/fmGNrIuj9v1KzMRMvQftNmfAhTADtEb2PQqeyA0IJQ7GMIDG8iEpszLATVKjBIDbH2O8RIAo6kI8b1lU46FYH4OZP0ac061YAatHNKf6RcKINu5Y1dqGAdmgrWsnVMRNSs1rG1GdFMKDZFk8BRI9nL2qQ/gI+2s1cC37vQBrtBARtIu0as8MjwfEv3KuAA1ufN+rndTO7i1c5NAdSRQbzO3ot0rDNouY096kQJQAQf/aD4P14f3r9eXsbTaf74Wf9vv3b01fylJI9/AA==);lineShape=1;fontFamily=Comic Sans MS;" vertex="1" parent="1">
                    <mxGeometry x="487.5423656939031" y="476.62041787017847" width="38.401446101027574" height="28.627121142771653" as="geometry"/>
                </mxCell>
                <mxCell id="79" value="" style="shape=stencil(lVdJbhtBDHyNrgTZ7PXsJP8wYDkW4liG7Wy/DydCyyJHU4FvoxFrmmQVl97pzevD7fN+l/j17eX4bf/rcPf2sNNPu5QOTw/7l8ObPe30805v7o8v+68vxx9Pd6ffz7eL5fL0/fhz+cLvE64MGm1BJf5zelOp8L8XX072j4enC/tcKA1nL5mqbAO0U1YHSExcACCRZg8o1MAJqZF4gAr1DgBKyh7QiQcAMIkPOmcqeRsgnUpygMJUgUuyylKpVBUABrXqeUvEDcRQKBcHaEIZuKSZunepdepIGqYcL6WeSQFxxbLUPaBRB2ltaX7vDBhUgUudKUk8YYCgu1LRCEBptb/VM90rZHoISY+ADk4Year/wiUU9GirGIw4wMMYpF5Lg+eb6+JjK2FfQSORIJ/sCB/1UEj1EoQX0zABoxNyLIhRYWMyIpJvG3YminqhukdAAZ1sEdOIAEHqM7muYkgA0Bq1EEOmgSqoxvY9zs1wC8CBB4Gtz1wSLw2rUVjUg1JoG30m+nqWrAv4TrYwA5i2AuNQEJUaIs6GoqwASK0rpheXkFpNm2MVNBDf6HOkXaY1wYobPuiFONwFWgDoZGbLpTBGF/GhE2yOB/HVKfgtQOePAEytGraT91Z1FVElium9G25OubVPYHlYlpESiVC0PDTKYaTo7G3XATbIvVytpgQwV+f8ONtnYrQKUPIR1E4VRUDsA7DdBLWA1TSx5SeD+uQ44PKY0+L67jOr/WyfptY38hM0oQX6L0zD9+3U4ZphFLPXqfmIGEs5bqBSSfAWnX1XlfMutLXYN0+awC0jN0re3pKA7AdxDvaoyxeJKWK4iBWN4xwXfimkLdgLKLLSoigYDn+7WHEN+RSgocqx6gXmc2lc4V5FDeTT7MN+pHCkmX319nkKZMuefX7K/MBWfj508fy/vT2833LvD4+Pp0vy5f/xVmyvTjdq/fwX);lineShape=1;fontFamily=Comic Sans MS;" vertex="1" parent="1">
                    <mxGeometry x="530.3281659546203" y="456.49927007222414" width="23.28328791834864" height="51.31702293400981" as="geometry"/>
                </mxCell>
                <mxCell id="80" value="" style="shape=stencil(lVjLbhsxDPwaXwlJ1POctv8RIE5jNI2DJH39fWdraGNy7UED5ODYmpVIDkfD3enN68Pt836Xwuvby/Hb/tfh7u1hp592KR2eHvYvhzd82unnnd7cH1/2X1+OP57uTv8/3y4rl0/fjz+XJ/w+4UoXQJa/8Of0TRxS279vvpwAj4enM0DNMooBpC41Xge0IC0bgFbJnQC6aDOADEC5DuhFogWUJjEQwBC1MdQmaRBAkx4NAIdkWephnngCepeiJK3YwdZhVIkkrSVJDbZwIUggUWuRbtM0unQSdYpSbNRDaRAxSOw26iK5kh0kq00r1qfr69cA17olKYRKSKGlXh7SWQBRut0g58mty4AuzUasQyKJAEeqtgiapRIAqhYsMRQNRXKaVbLdITUpBAAJKA6gs45XO9oeCYWprEGDJJul2GSwukECbOEi8kaoWopo9TuwI+XiVQm6l0mlc/QdDfYmsoN2GS6teWrt1f603ZAK1T1NXsZSofSGUo/gAUokY3me20FlsB3USwZEpDMFSLNdzuqgRPeW522oUTLdoTry6XzEZUCemrICIIQsS22eeNVJaaxuwUt3n7JzeX2eN8H7+saI1LwCDJqhHPz5EXBkEpM23aZUt6FJOnzRAhEAAJIDdMojHCnYooEorJ+h090BVCqhNlzL2LRnZAD0QvIAWufgpR6AQmLAZeKuK3CXBY2fo03r0h3sukqbywRaznoheqcEIaYWIG3uhiyNCYBuBCBRXf0wYCGfC1oSKfRixSwzAvVVVaX59cy4teZFFQJC+nngcbbKefqgy+vHDO+s/1mznTnNs+ZhIcA4uvYE2RPZoufZWytAqWWAc3SWAfcpU+G6+q4V0KisljiruqY1ijIB6F7EcqNEWi4SCyjcMoAI0Rlipcq9MNlmqUVuGZAT2wuNG6uti+lpttPlbuue3RgaAvN6MIduytApnNfcpLNuiIE2XPLkg+UNRJPq8I4YgwlTPZDPqR5EpJEjYaItbpRJ9FLH8/zcgMmduYDtYF/p7LOMRtYFQGc611V3N0A1lJl03fjVOGfYa0fKNkvokMyChsN2U/Tg1qf6SsOYMLaC3uoAjRrcErzbg1fqJEvQpdE9gClf2V6IvB8wXZXtdMXZGorPUmFBf/Q11H8A8OH9rdf94fHx9NLs/Hf/lgxfnd6w6ee/);lineShape=1;fontFamily=Comic Sans MS;" vertex="1" parent="1">
                    <mxGeometry x="549.3165399845889" y="452.57741809454046" width="29.483907805339474" height="37.203633332343855" as="geometry"/>
                </mxCell>
                <mxCell id="81" value="" style="shape=stencil(lVjLbhsxDPwaXwlKpF7nNP2PAHEao2kcJOnr70vXkGNyvWPkttZqLJEcksPdyM3b493LdpP57f11/337e3f//riRL5ucd8+P29fduz1t5HYjNw/71+231/3P5/vj75e7w87D04/9r8M//DniUqVRD6jMf48rTFr+L3w97n/aPZ/tz51Kc/szCdgvnYbfr1TS+n7tVMXtb5Tq+v7SqGW3PzElXQfUSuoNTkK1rwOaXTic0KgCk3uiXryLbEUAoFPyNudCA1xpCKXkAMIwCqNS80aL0sgAsAibDFIEGDS8DSrU2zogMROzR3QS4Ca7UzCiZOrITZWqj5yxBZHP/NrUAaqxG1jdzWof6mp0HQBQqHgb2hVu8CIfKgkDupaZLxNw+AuQQdVs8HHoigGF2HPDCJzBlYqd4Ok6EgnghpbIb4s9upKeitAJMEhAHKwsdY2AjuqYxkifEfgyIhH3xRGATFbpQqgPRiCAxiQdp+p8GSAk4Up2JiiWBmCfQR85tQYYwa9lWnUZUBcn6Ezzy4AR2WeABJJaMrXADZkrlwF19oNzADBaObYUuxKjJieLE6zJALpqjbXS3IrKsbaZkWeBQwlhgNCDjBqKbCjUFzkKk1rm6zN6JwTgRaQHNcAlC1yuETBQFbCysagCAxht6qdxBBSUD2VBvg7rjCVQW6ToQPkgC2rUawAdkUsDXalQThHAKKc/CxChEmxIs0+ucal7L/UKZaJJixEAGZaZorPLnvpun31yrcnFzq6QrVUpe2o0nm64DLD88m41LZuQFEhUvQ01kWKpy/5KpUJ1YmIjdHaTZArc2tokwrnoA+QztRMaiioUGwZIvqFYHUFlxowOgsnqSEJXYurerVZHGAkmGzk8IGPBVI0IYYJQWL2LJVCYIHiurDWU7GurDTVX1EzoDylRBtLBBsscB7mM+kmcHwp0UY7EU9jTU+w9mEQcdZLAcrSYZGwuAdHi2KYy9Eya8+zJ8/AyeSqJj4Ee9UCNzGHY0GrUzQznnREdyVPuXTY1RzWINXbSWOEYpu5nv3Zc328PH59WHnZPT8cvM+fv46cYWzp+xpHbfw==);lineShape=1;fontFamily=Comic Sans MS;" vertex="1" parent="1">
                    <mxGeometry x="574.119684094773" y="437.0245940205177" width="20.068965766497154" height="77.38840659898655" as="geometry"/>
                </mxCell>
                <mxCell id="82" value="" style="shape=stencil(lVjbcttACP0avzJ7ZZfnNP2PzMRpPE3jjOP08vdF9axikHXsvtkSrLgcDrCbfPf+/PC23aTwfjzsv29/7R6Pz5v8ZZPS7vV5e9gd9dcm32/y3dP+sP122H+8Pp7+vz1MktOvH/uf0wm/T3qRUpiUUvgzHnD69+DrSfxl93omXilXI56o9HXxTim700NeF4+RKhv5QDUCeTVH3PmxAnmh1p35sazLpzK8+5TvDOSFspXPw8CL8rn4cGZqDcjr+cnIF+ogPqVQtPFniki++/g3qgGgIVEtRr5TA/mtTMGeLxRAfKp4/AjML6cBr7PzgT1cqHZnvyB5pl6dPLK/BWrRyFfqAG+tUPD4acDf1ihaPEQSgM8mJM3VVwHnd4V7d/IB4KFXqr4eM5LX8Fn7EwmgEwmUkotnA/EUPc7GP+oJSKES2wQrxTCyqFOxX1CTAiBQUUTaFGQFCcCQKrBlaGWBKwrO6RpH2V1mxTBndaaJTAU70W3dtznzawrFFn5nSkihU7dIkgKpVBWiUxDotTQqxSt0AFZhX8z6pAK20NfBmtQFR0mxZulLC7ahPFTfb7iRgIJeKtQKGX4yyXWcTIx84AW+M65RHufNFTQHejVxruTyaIur0GheAdH8BD6n0OGYM8HbYikzFVwP3Wa6zFR+a41OzRHhW2nAZq7paIcSoURj46r0L2AaEfH4Vr4N6AsaRdeeG05E89g4i8MamsRVtfYYVBE8CuZWhexnNu16gnIdBkucVXUHXvc2hqhZIV9ru9myK8+AXOvrzfrADMlyOTjo6BQANpaTic5mFX2heN7ggGcffe0KokM6noY3p4CblrpYLPpqhssRz9PXrBDgvKcl7JhJJ3A0sE4DtK3RUkdNrU7o1mnlbzRCTyuAI/w4lqbVHcN9IcAOMS0x/zXQXNiSBI6VF9YwgVPccs9THxL4wnKRVAVB/L3YVDWsUGGxChdNJZrV/apUEoaSD6p6UEGMFhcF6gDimOCnUD2/A8YIozmd5SwCwtDNxaGIr9jj7M8J1mbwfKQRRmyx6M9XhoyFvGIqYnlrT1TQwnj6i515ebotngy5bpkuElAwCzSkMa7fBjZ8K3VVXH98XoA97V5eTvdn5+/9hZk+Ol225fu/);lineShape=1;fontFamily=Comic Sans MS;" vertex="1" parent="1">
                    <mxGeometry x="344.02743294523043" y="523.4154412031558" width="129.7710699819826" height="7.848404061068275" as="geometry"/>
                </mxCell>
                <mxCell id="83" value="" style="shape=stencil(lVbZcsIwDPyavGpsyZeeafsfzAAlUwoM0OvvK5omjUyitm85dm1rtWu7ocV5uzyuG3Tny+nwtH5rV5dtQ3cNYrvfrk/tRZ4aum9osTmc1o+nw8t+1b0fl1fk9en58Hod4b3jRYacrix0H90XDkDh68tDR9i1+xHBI2SvCDED4zwhAVZ4D5SMCaCgwgeExPN4B84pPGE/wgyeo8KjVFTm8QGiFsgTJDLW7yBoQgLyBr6AIz0BJAMvw4Ws8IMCk3gKwL4e39Bf5A6xWn8w9AwFCGuBcp4nSP8L1x347sk0QRqkCdJiNiwRXe/IkYeKMUOQEvUMsshgzEAMrJscpY1G12TFTncheciGrEg3NkJAK5gRUPtIsh2NJRXwVQlkBofqCkLs946ZoFEVzATeCJrg9frFeM7AU/938F36pV7U+GK2WPQknTPbQ7KepE3nwBsxEEdU+jvIlkcl5tqjsjNZuZzCW/IwJF2vpMIqQA4KrwuW0DhDUc4QgiZk8IalmWtCImArA+7mNMgevFG1TFGplEufo2lC6je3wUah38+mCVT3maXRxoZdxJfaqBz7LXaaQHXRPAwxScgZnNZ1JNw04+bUFOGyUXWK4LRM0v1inQr/vYj8gSAPP/eeTbvbddem8f/6niSfujsW3X8C);lineShape=1;fontFamily=Comic Sans MS;" vertex="1" parent="1">
                    <mxGeometry x="465.8112636113108" y="523.630150327501" width="8.142026036960631" height="6.894159423869065" as="geometry"/>
                </mxCell>
                <mxCell id="84" value="" style="shape=stencil(7VjLbhsxDPwaXwmJ1POcpv8RIE5tNI0Dx+nj78utra3FXU2TU1Ggt7WXoxXJ4ZDSRm5ednfP2w27l9Px8Hn7bX9/2m3kw4Z5/7TbHvcnfdrI7UZuHg7H7afj4fXp/vz7+W6ynJ6+HL5OK3w/47ynVCcUux+XfxKF9Oufj2fA4/7pChAol95eyLmxvVA26zN5YK9vQ2/vqJaxvb71nX2lBJZ35PvtFHIZmV98a+YanIjMJXXmgUoYm3vi3lxIwOpMSTpzJgfMA4V+754cj83Vs9yZqzMyNi+UvTFHNJiyWK09oJmyylv76IF9JJ+NtwK8FabQrx8w7Zliv34mAf5GJjG8dy3b6+GvVA3xEzlAniJUuKeDowL4UCNxvyX1oQLye7egv2T8iWyrPWSKCKBZ6uUkpha4kdfc5yEFcoAYOVLtw5Rdk5j1RBRKBqCJAFtKrkVx1hStVCBZUTWxr/tSyQFAUBnp81BTk+F1gLd5qOoVYJ+UJsozoLZNrgMCeW8BiEyi9BcLYKR2iUpPjYldqHMsBE8ZH8CWVG4v+jkDuMVtHcCtFV0lriIfwqLdZGJAPnU6GmqEpgvrgNo6zAzQJgLqQYTSgq0RNfC8AkAtVskX2G4pgS0pvaMBaOIQIFEKNqwFqP2kQr0PVdsJyLQC2NBbmlfrgNjWuypR1G61oZRFiXrUsaqVSi2gAHwQDaIdpXCTFs3c4hMoTFMD8dYJ1BY5LmQjNUEf1agZqTQRGXBDa7QYgGuRHn0h9SpQStvkyIdkajQ2Pr4DAGRDxVV6JcuFGOk9W+nLHoY1OptpbaNIBWK2LSgWWHK6Xu3DGueRbr1Ri+WS6gKKkrZlA5AEv5DmWX8GeCjfcVGj05QM8qAlZwYmnclQ3/WZXN8VdZBFOvM3jlOgFv4fp4Zka8eJNx+nnDH/l45TelZhNsGMSBL1tdEf8n8YpPpw5jZOjiRX+uQWvJ+0qEMHjxUKYEMH30a30Y5MX5ouTlBfWmiJn+ekYSMz2hApo97qLYk0jRllwTXKz4AM1Upfl2wBGeRNd2x9mMfPEbENkTyesN994fUGgD78vl972D8+nq/nrt/b+zj963yXJ7c/AQ==);lineShape=1;fontFamily=Comic Sans MS;" vertex="1" parent="1">
                    <mxGeometry x="461.71306724236547" y="520.2796677415606" width="25.017952741926056" height="35.23216355829271" as="geometry"/>
                </mxCell>
                <mxCell id="85" value="" style="shape=stencil(lVfZchpBDPyafVWN5pLm2XH+w1XGgQoBFybX30eELEaC7ZTf1mv1oKO7NTuVh7f10+tqyunteNh/Xf3cPB/XU/k05bzZrVeHzdGepvI4lYeX/WH15bD/vns+//36dIo8PX3b/zid8OuMy0wiJ1ROv/+9odz/vvh8jt9udlfxhak1Fz+o83J8rfNxczwLyVgGNKFRfUKdGGQkmZoHlEq9LAO0kbADVKaRlwGjU88O0BIVUDSnRCk5RLcsBeSkMScpNADAqmY/B2UqCfTVzvO/oEIVAIoSe8DANbBSVw8Y8xH3ATanHgGjob5SlQhQkFKnVny8wvgSyTqEEiqZUmiRlVSX429oMZgUFGw0C0NWGkA8OeajfT7hvjpJPbHV5AomprH/mkkBh9gYMyIA2Qt3khYBHVRgLWqhZCM6UL/NONbQoNJyo1LiEBpKqZH6om3KSGkGSAFgYwCGZDUkPzezKAEANl0F4ikkqs0heVM1pQlSghE5+Py7Cd53MJIbt0AGZi0Ji0dmrixoswftt5kqC1rjMATjNoxPPn8dkHhmz0FrQqzIi8JiNm0ir7icdiUEdP5H422rqk9I6tyC+xuHo3C6ziS579ZmVp50vUC3ENsHnnStUgEstctF2Gm1Q2nWHB2yCDWQklnk8EXbmwws25RWgnBsawIe9XjdMenBCxWxl/5pi6Ib2w0v5hYs0FR9OtZiYCw1DqBRheHDi/7ycwu9CYzLVEHudsPxjGbKgNB8s44v/FvafhLjE3KIRrnGeLRdJd6fLEGUv12WNNTLaJF98Nvg//H28P4h8rLZbs/fMdf/jx8u9ur80VMe/wA=);lineShape=1;fontFamily=Comic Sans MS;" vertex="1" parent="1">
                    <mxGeometry x="488.06676894876114" y="420.05268315955584" width="22.58204016819802" height="32.957424318732905" as="geometry"/>
                </mxCell>
                <mxCell id="86" value="" style="shape=stencil(7VnLchQ5EPyauVbordIZ2P8gArOeWGMTxizw96R2Vj2jUncCx93gNpaVLdU7q3SKrz7dv/14dwru08vz0193X87vXu5P8fUphPPj/d3z+QW/TvHNKb56//R89+fz0+fHd5e/P77tO/uvD09/9y98veCSON9BwX27LDjJ7Z+FPy7bH86PN9tVNE3bk2g83u7x+Xl/k6xkfxVt034fRN0xIARJcQYU0UIAVeJ8o+Al+2NADAugSKoEgBNmGSJOIEpKQfJ8QixSiBFSlRRmK3ip5Eo5WCunQu2Wi0SdABknELUWJ7HOgDIssw+AZ8xawieUCF3qcMwNkIdz7QKqk+pmALyXaKlGiTOghrGyD8iS8wzIEoh71yZ+9lasMLUqPGe2tAapLD4RvrMdtEphMhQrg6o4YjjoJMxa0jL898hwbfYlTdKYL0VJxQpdMgHAvY2W4K0M4K2lAfDEcPDNatTqJHFAmgHd0sQOHTCHaFUeD87GAwCOAbw4497IVFxLZVYrnKWSVAk7pAUQmNBxXOAmgFiIImuYZAxADQSQd05gqbIg8y0yOCZ0Fd8sgGW+ulWDW0uzRFYW50MMkit1VzPxkCQQSyvSljlBxRO1NrfUdT+q3j4g2qKIlcxOwPeKvVIiWQOA4K3QiagVMtQ5L0FvjQvtTQBBb8TS2iTMMqAmZRIPXeuzWuG/hVgahjP1IasEIgMAaZYh11G5jwAmCaCwM8OhGnjDBPJQ9BGgNQugMiwFJaOgMLU2ccUCWMStlsaVHNESAKsMmUQcvLUkq9bAruSXE6o4dkKw6R6ARnypX8loSaUS9wbAsMrcRgE4VGu0AHalbriFJHqWyNQygbKZ8siXDABXogSrWPoDAE0CebG08iSwF6KFkcQ8GpgbX2JNEwCtWACrcbr1IzfuHVlM10VohChLM2rJeuadpW7E+SdP6OneLzIwgLc0FIDGapwfznyjVsY1fh2QrKVBiGgVLYPLb4A2GoR9QB2pdytZG+XaB6it073JYVpqEk2djlytzc4EOhNgQwfnbOprgSJwRDJ0JtOuCYZIZk5xPfTI/Qzrw6GNpbJimStsU4klQAqTAfCyCPpv0vGVdB0x17g0l8z9OpleOFlkgN+d3L+A/2AntzRm//dOro+kdFErmzAtNQiWZvMfJF8T09cBzz5Arbf2gRED5DFa2QCZ9oo12hFw70Z/MIcz/W7latWlMUs0L5VlhoUzGzshjky6lUVOpntMG17J59Io5M3wGaWzxBwt1cVKIWpNahNZ4nQ9Jdsgp0gbs4hKPRsuKgck8fMJETIQ5wtqOzmssLwUouUCWGEdhNflQaENer0PSHZQ4TMlQN6NfmEDeOp8eakntCS6MQDYdEprgxsD6E1B1ClAWux2fhlTeLwocQhn+25PA9+NPHLdzvK1s1HvaMA42/Q4blebeR2diC3tuaN3X558OHtckgPvaqOtS47mnl98A/zhdvy4Pje+Pz88XF4rb/9vnyexdHnajG++Aw==);lineShape=1;fontFamily=Comic Sans MS;" vertex="1" parent="1">
                    <mxGeometry x="551.1703022391341" y="521.0203822717781" width="67.91335345121657" height="84.61436154912822" as="geometry"/>
                </mxCell>
                <mxCell id="87" value="" style="shape=stencil(lVjLUhwxDPyavapsy88zIf9BFUvYCgEKyOvv087Gw1gz21Ruy+C2LanVknzQq9f7m+fjIbjXt5enr8efp9u3+4N+OoRwerw/vpze8Oug1we9unt6OX55efr+eHv++/mmr+y/vj396Dv8OuNCkJQ6Krjf5y9esvv74fN5/cPpcb0+SwnzeiexEECTXGZAEa+XAYobzSeEKM0TQJKoE0BVSiKAKsFPgKiixOjoxbsJkFRCJQC1V8pBlHgpJnFzGArc2gggi842lCKRXamItglQlQYuwkt5BlTx7IQ29huAFqVG6iW1XHLiSCDUS5gD0arETNjnROsMUMnECA+uGYCTRAIBehsv5bHD7vo0yL8Kwz8v7F9oUHmJc5NCLIYD47w+SSXptjh8WR/GDhfuE+eYZbCC0Uh09k+OI/t211dp830ybkjWI2BpdmhKUpgg+eGPBYD0JhYjxHU2uScfCQH0pc42Q0CovmwESfMg+j6JythvAXh6pZwkz9kPIa+EpmBBmXmEStGIqJZqE8c3KkgVkmcKA4wmmYBErPOVvIojJ7Qw9lsAqC2ES9AGEzgAGFlbklQ3AGZDsZH2S7nbB9TNCTCa6VGTtPESi/RKcxdElMKPMDnqkXJEYwAwpQShZl0GrPbGiEJVsmG/ZAGVnQCdN+yrtPSAG9aGMtywD/A25QBIDICKn6yXKkm5itoTLYBpJQBqjE40g+qmuoEanlypOdsDeF7e4KUyqzESIhP57nFoFsB6MeSo26Qc62M6lzYnKMuHpQKuACzlej5skprmQxsd8CoOTFz3kjqNyn1RN0wgUOVYUkOZNgnhmVjuApjV6ETmK6FbCSQQKCl1dlNQakPZJETgwoSy6E2lBuNJ85A3JUWhPCQO6F7CnNTaeBeNG5v2BD0mb0/SbENylBq9tzCARLuNsCntidvQ23TT9SlVAdDfBC63Eft9QLBza4mDjvuANMR61XhTQLM21EA7dXDTlCDwl40OGGvN7NA8bRPBHKNkveyROHSqzSUIMx+jNwDGrRhnCrOhDe1dza2MGmCrN4Fz/DkgD2Vczd4UEG1OY7qvRGaQDyYOmGQbkRkMNcG8UHD57lPibAO+sCcNNOfmSmhnmBh3tppmw4+XoEsZV80EMUJ/ab0ZXAPlat9/8xDFKlzaFF3xJGi9RZ3T01GPovpFb9ZHdv9iddvRqdJvmoYP5txm84A/lfR/Z3sfEq/gbIvhBkMujdHZ2puJ/9/Dv4oXsfe/HyY/XI8f76+gd6eHh/Mj6vr/9tUUn84vrnr9Bw==);lineShape=1;fontFamily=Comic Sans MS;" vertex="1" parent="1">
                    <mxGeometry x="645.7411355323131" y="572.4280732606237" width="38.49378865351115" height="70.36003490377473" as="geometry"/>
                </mxCell>
                <mxCell id="88" value="" style="shape=stencil(rVjbbtswDP0avxKSqOtz1/1HgaZLsKwp0uz296PmyTHp5AwD9uY4PBIPeUhRnvjhff/0tpuCe7+cT5933w/Pl/3EH6YQDq/73flwkaeJHyd+eDmdd5/Op6+vz/Pvt6du2Z++nL71FX7MOA6UckcF93N+EynE3y8+zvbHw+vKPiQKTdn7QM0BgKPACiBvcroP8IVK0YBMLgNApKopCKkcACBYDtwoeQBwlKoOUqYIAI2K9igxOcC5UdUxSo0CouxsjHLCMZKIaMrFESPKsp7eoUjmQZ4lbX9ksACEQwHCiDZIVXYALnWp6h1qg1qVrDadtuaHGG8CYhu6WQEK4JA9eW8BHuxQeHi84sAgcVXKR3OolXwFgEqNbVgj4NA91qRrpIbEymO9FaCiHRKVtMk0iFKTFqDDWqUFoHpr5M0OZWTmHqB5G9aIXBKAiZIULWgy3SUdpR5ooNZOWnNo0qdQHhJVXQ+SGYc4MCW2ANjG/IYDEwMOXXzVcqjApZ6mTZQaAqShzQXgRtzuAaKpB6m4BgF5U3FIfKLNbBpZpoKjZGtaKgQlzo0esQI4VHGbdt9LFIlP1gubHUBfasV2vs4BaamOmKyjhEvUAuSIAaS9c+Q2BwRqrrKFOVG6mDAJMzl0uSJA3uwgBfE/AZJY61ImBo1JDn7T74VVBurLPOS/ABpFENZYLYdVam6f1JFSsz4lsIUMD860gThaz70h0XQm0QZq+H3EMiUkAgc7lNEZF3s/SN2OkqVcMjxQAkWdtuIpAn9kyt6MiAkQ3hRPn0Ghvdf+J2k6aEAcw90yQydoL6rT8eQKdS3Z0f7zcnrdLhw7c0tG0JzkpdLNzUeWAAn2eRTutQzGPeJ2huVw1aKW6RMpgjcewaEnLGPasBeNIPtkZx6H74ZyJjhj75D9ktCVPbpKSru29miiYjf62tU+IntvS9LBBMuFhNnEHylI7Kv2P8DLAi/j3NUeHeKyfjMlA5vov979/24vD9cPDS+H43H+TrH+336YkFfzRw1+/AU=);lineShape=1;fontFamily=Comic Sans MS;" vertex="1" parent="1">
                    <mxGeometry x="692.4328499841374" y="572.9415686735006" width="36.48353165770483" height="61.94559752470684" as="geometry"/>
                </mxCell>
                <mxCell id="89" value="" style="shape=stencil(nVfLctswDPwaXTEkwec5Tf8jM3FqT1074zh9/H2h0VAxIGnd9CZbWJJY7ELgwA9v+6fX3RDc2/Vy/r77dXi+7gf+MoRwOO13l8NVngZ+HPjh5XzZfbuc30/P0+/XpzFyfPpx/jmu8HvCeXJ5BAX3Z/ojNMrTP1+n+OPhdBPfyDcd7yj67XjfyEUF8EwpbANColAVoFED8eypORWfiSuIbxR1xkwexMdMregEyLXt+OyI9fqOnNuOL56izjdQAOtX1+vT4wuFAuIrFdbnTxQBoS2Q14SOGQOGWqQcNKD0JdYBmaI+EjM+UqGaNKD1rNYBkrSWqZSxoBwasVeAxFB2Akg6h+ywccRXBiDKwkcyOZSZhnWruVlps3W4i30zCb1FS5TAFsJr1DRJaWDlMiXtHlmiYjFZ+wsPQN/N99ezvh12XJVaO7tFigAgcmabRAQ0VWHR7JCpoh0iJW1q4aEiV8dO+wwIVPCRjKubowIad829TXeAdJIGxCSvjSOEt4wq57rDbgCocKOa06cAyfaNe0cSh+XPJC3KsXLFtAqg6SPdKZwAqqk0lsaHwf5RfJJ0MEfC8hZa3cKjyECSYtZt455HhUUrV9wGpLDV2SRQoxFDmO/6nVYmliufapYCYEMTbsf/AzCzQw2982wBsmapBEyr7KCTzjIM4KSD7gIp9sqsA0L3y/yplgEE7FCaLZyMgIwmrNwHtnk+wZbLlbI2hIxMDug7NdvJvO8NfR2wGOIEkEEOXO18IkdCSY9T8HKKQ9ODjExmisvQon4xuHLqI87GfLIAyDcGzQJWSlw6C+uFpuptPBL3giKJbyCBRQMY1wejOtubwHh+ICPRvbf8ZNCRvNX1WACQr7PthSNs29KizXkYam4xfnIgB/hc3JTYQT5X76pI0nfvtvLwcTF+ORyP07369r29SMtf0yWcH/8C);lineShape=1;fontFamily=Comic Sans MS;" vertex="1" parent="1">
                    <mxGeometry x="709.6821365130663" y="571.1583234304223" width="35.284454420210224" height="42.08419577576335" as="geometry"/>
                </mxCell>
                <mxCell id="90" value="" style="shape=stencil(lVbLbhsxDPyavRKiXpTOafofAeLURl07cJy2+fvQXWgT0t4pclvLHElDzpCa0t3L9uF5M8Xwcj4df27+7B7P2yl9m2LcHbab0+6sX1O6n9Ld0/G0+XE6vh4e59/PD5fIy9ev4+/LDn9nXKYUL6AY3uYFSZTrv5Xvc/x+d/gUz0KlGkBNY4ubgFgoJwMolTqvA1IibhbAFPI6IAtFMYDMVMI6oHQqxQAuZwIOtVGxWVJWDDhIG/sNACeqANA0J/ZKkSIoQ1MK3cQHSmk9vkfKwcUzil/4LQSoCogXyjY+UwMl6J2CLXIn7jC+WxWxKhddqFOzB7CugAr0Rj3bCuRx5hpltiVQDhFx1pRYDikOqa8VzRVBdVqAE1QVKXgAFyg7cQD1GgJkKjatUWC/aHoBa05VtqAT4jDKUjg9AZhTAd2ewJECKJxycIUT6AVNkqOQKCIGjarNUSBB2mbK4uID1lHMLr4jK1wXmSrav/kKCFVQALWaZF+AAghzWAguiEYBmVOF7dpjGlJfM2dzAIFTRxtedUXmceYqoH0FoE4QK7tcYB2k+J5adAvAoebRHZbZzNRAv9DBKpZ07UPrt2ezzjVbOMHDXM3e7SBsAnseh+HdZTBoYwZZamMMLPEdcq5UnVgDtlv2c+FDjLdzdHUhGTvcTtEV4QIJqNnd5Ewwo4GilV0P8LFz5U3tfw3Gs72/Cj0D9wdvtKZPFyAh9hNHdB4AvtFPWfURmoFffQH/P14/Pp7bT7v9fn6tf/7fP891aX7ap/t3);lineShape=1;fontFamily=Comic Sans MS;" vertex="1" parent="1">
                    <mxGeometry x="722.2473499900491" y="575.7623760438341" width="31.76650256559649" height="16.460105134756546" as="geometry"/>
                </mxCell>
                <mxCell id="91" value="" style="shape=stencil(lVfZctswDPwavWJIggf4nKb/kZk4taeunXGcHn9fqB7ZAmRtmjfZwoo4F8uBH962T6+bIYW38+n4ffNr93zeDvxlSGl32G5Ou7M+Dfw48MPL8bT5djq+H54vv1+fRsvx6cfx5/iF3xdcI84jKIU/lz8Clf7vj68X8/3uMDNPTCUZeyGu6/ZcKUZjHzN1AMiZcrOATjmsA0qmwAaQ9IS0DqhMqRgABxIAaJGaA1RqEQA6xW4AOVEDMUihbE/IQi2vA7p6XA1A0yAIUCjautVIAcTQG3XrUq3UEaBTsZVuiTIAxBAoBIto0zfWjnDNKokSAsgU4xVQp9LcB+hrsYAO50ELkW33de0+hr1RbW+MiQMDoTkR8QBUiFZI7AmzTN9HsK+1HiEIoGmvHsCg/Vqg7qIWqg0CkqUBbUgpEOBmTmvZBQJa9oCIYoiLQpSp+GtpzQ6QP6ocLwAVuaTs3RYAlKXuuW90CZwgV2qcBw3SKnEi31laE+K+tJigRgHEoAAOHoAIX10qrtLKrgigzedc6lNl7qdVPPeNA4RWSp1m/r9nNFNZ0gCe0bYAFLzmuPg0wXZV7lvkFU5QmF7PKpcwC+TFUKOdojF4lwoeiDSFOAMERMefBYjKDReDSiwQtIiXTCoPGOwgXVHdNpN2PBQDkaIFjIsX9LcCkk3rrbvW1qLjmYpPEGV3y2SqT5BO1LR6BVQnIbg6o3YeSpgSvVbpYnlGtSmDiavFb0UWOHHqsdhKs6YVtEZuXjwkzJXqQLBpTZEq0uvBq+nYoMTS1+5CEANsjeiFKFMESQ3+8wkK4wXD6LIAFVgo0OuOX/u6N8/QGUdGKrmBM9GL1QCXv95KqjNHEixNPHgzj8AZpsrOHF0X8vLraJuVO86gyfLbMsBB/OSd9kNzfbhdn192+/3l9j1/76/b+tflqs6PfwE=);lineShape=1;fontFamily=Comic Sans MS;" vertex="1" parent="1">
                    <mxGeometry x="744.9124783582415" y="558.1302864819872" width="35.66317256867167" height="81.44286448783843" as="geometry"/>
                </mxCell>
                <mxCell id="92" value="" style="shape=stencil(rVfbbtswDP2avBKUKIvSc9f9R4GmS7AsKdJ0l78fPVeJRcdnGLA3xzm0eDvk0UYe3nZPr9tN5LfL+fR1+2P/fNlt5NMmxv1xtz3vL/a0kceNPLycztsv59P78Xn6/fo0Isenb6fv4xd+Tna1ktTRKvKv6U2kGv+8+DzhD/vjHM+kocNXirqOLwOlHh+EBl430Ep56A0KRWQglHIfgb1J6wY5k5bewGJABkyxP0EGGPQglHuDFCiDE5K2EK8GhSQDA25VagbDAGMYPe5PyJECSKvlpPSFy4UUGSRS6Qw0UQUxRKbUV7ow5bJuEJS4L5x110ez3DdIJNobVNjdIZD2bKhCBZxQaHBssDegM5RKXwXjX6ig9UiTx2eQU2ObeHxFjUccF3jgT2xtPMMXlNDGxBn+w8O7eKYh+3wWkE8mVo9Hw8Lwzh+lBOJlP1tqbrRYiVfY4yOINy6+P8B8Svt3hs/An+tQmOPRqGvdO/cHUFIbYWfxCoi3LPohw/60keP8sRPh993ysH4Q+H03UQyP+l8pLPg1gHpZ9qrHo35OrRuvy4+tZUFDyyIAIzDABz/VxwBAgfkOniEhQ/UJxYRnRxhta2QFHxcNwf8Rnxb5NIqCAltDuJVUIMGCTRS3khJUK+MO6ymvuOVMLmnPAVNICk4Yh4qTBtqcXJMGoZ9appAKEh9poVYE0yBQ6LOUbE6AOWcCKvd9agqJAZGHRKF3SQRPRm5Zv6pGyxJgjsnM6pR1aNttTcgGJ5VzS/SaVOa+DqZfEsiStZpvjaZs74t98WWwOgPyGF6zw6PtWhfjjuG2tGUk4vCM/L8u3xkeDMe6GO+GB+rP8NXnB6kPm4UafX6Q/3UZr6J8Vp//ANXlTezd8Gi7zpbR7bbIgAPjtvN4NLv++Tb6V7w93K6+L/vDYbo5z//3V2V7NV2z5fE3);lineShape=1;fontFamily=Comic Sans MS;" vertex="1" parent="1">
                    <mxGeometry x="511.30950384714356" y="531.138343208059" width="41.280186040624024" height="82.32442533171898" as="geometry"/>
                </mxCell>
                <mxCell id="93" value="" style="shape=stencil(rVfLbttADPwaXYldcp/nNP2PAHFqoa4dOE4ff1+qwsriKpoCRW+yzNGSnOGIGuTh7fj0ehjYvd2ul6+HH+Pz7TjIp4F5PB8P1/GmV4M8DvLwcrkevlwv7+fn+ffr0xQ5XX27fJ+e8HPG+UycJhS7X/OdQlz+3Pg8x5/Gs40vYuK5UmQAqJSdAYRADpzATNVmlBiewImiBeRCLu8DgifvLcCT8/uAyO15S0qOBACSp1xt0YUqAGTXSmwAKRTjPqBoAsHykMiDLhXpi2ahDFIqiYItWpkR2QdUR672AA9qqEIx9yn5BAAbpjlCtdZCueuSyhtIo1YqxfLgqYC2TgCbksRW1W5Kdh6kNmb2ig6dlhgOkLa1BwTyKCUlrhvRCHlQacjmhBqg+Jx1jaDcI4BrvC4AD7ukIx/sCaJOVQEgU+qIC8RA3ndTWQA6tCilSsm2lTOsoei4dIBAwQFAbC60mriEiCu9vJmhVVamEDcngLbWSClsakAzXZptrbuETtC2cs9DAl3ybqNvpVrwULPtq4qpopHLzRnXcv2fANVG55WxQPvOC0/LO2uxqo/fWdpFm1LBfh8SVdvWyXkAEaLPs2JaUbO3bXirJnVDh16LfUpTDUDfqRnj0iR1PlQzsa1Am+BBAdy0v9JqBvEbparYAcmuN4zcxnUnvJOE+gfa9SjbYgXuYUJsk/FU0RbW/m3hrm2WO0x1W6HDqwK50IVDofl+d9H9CjzeS1sY78Uy2oIDpW7VoQiq9bHvTmiW9HF86teQBF/5/7D2/yVeL+7fGC/j6TR/oqz/779J9Nb8PSOPvwE=);lineShape=1;fontFamily=Comic Sans MS;" vertex="1" parent="1">
                    <mxGeometry x="500.84567374482936" y="602.0525532217036" width="25.57510466797052" height="24.712534190603037" as="geometry"/>
                </mxCell>
                <mxCell id="94" value="" style="shape=stencil(lVjZbttADPwavxLL5R7c5zT9jwBxGqNpHCTp9felakg2KWuCvNkSR+IxQ3K1k5u3x7uX/S6nt/fX4/f978P9++NOvuxyPjw/7l8P7/ZrJ7c7uXk4vu6/vR5/Pt+f/r/cTZbTrx/HX9MT/pxwo1DnCZXT39OVQrn+v/D1ZP90eL60Z6rN2TNTVgBIlP0LuFEu2wBVah6QmTQBQKc0PEApIUAl7g4glVIHgExafZIylQwAiZrPUhmk4A29U88OUDsJSGu3uqkDtAKz1JmGB9iVJtuANua6LoBOClxqjUQcQIUqqHQTyr4OVvsCYqhCqTjAaJSAS2Jc8m/glCA3eFAPr7BngFfUGIMpREFamZJnhrZZgVftF3cX+0QMBJrnhCxVM/KiIpB4ak88AvFypuEDrvYIEIBFMDwtykL260WzAL2exajYtgElzVJZAEwFAGoi9WqzrldBDC1R8TGw4qwOqj6tLKQD9iQJvMAtyW57jzpVQDtrw2MEewEpGkIjx+ejNt/m15/9Z+C/qSrYj1kY1+1HbJCMdWCA0O9sUAkomQGCko3qFbSK0VfNRSCLRo1a4zK/8zogr1hUYDNSo12PAKS1c/O5AAjiXYlTwYKGLlkMOaYVNTy1seQ7sBWuIpd4FUPCMeTIpQF3Hou5eu0oCUpqJ/Y9e2HKVtXW2kRaW7XgTgXRqMZ4Ow2kBLtdQ7wd9ZYRu6OJFfhzMYMvKgY9GnEnNBIxckkp+5QaTTMSc4tDx4SQUH/5LMCWoRKC1vkRWysee6nZcEd1sMkddhcrtKI5WGh4l6RQAdoslTScFni+srWABSnY7E0IwFELVeGgmrjvB6ftoWiJtFGvQT0C05olprUbHdEK1uKaOh1RgKBtgQk90lpCAtSwDSocSKwJKnCpcjzy9AZ387oiX192oOuAHhdPW+/R6KnWJEKlbZEEhWuZxAMKzpLpIa/YWkGWjDns02p6QLtt6zEGo2MGQU97odeDrccdnfM4zh6uc1TXATL33oveihRnRAhNIM+b09ZRtYYuQwyY1DWehRnqU1frf4LTxKZ5qsEeTucyT46zPdo8dTneXNgj/zU2pA8WVdNV9B9ukTlKmed2s7XJxwUMT/MSp/mywW3Zq7cXvL189ovTh/b24/x56+Hw9HT6OnZ5P34Os0unT2ly+w8=);lineShape=1;fontFamily=Comic Sans MS;" vertex="1" parent="1">
                    <mxGeometry x="451.2933731688977" y="640.1666413176165" width="22.047279349090356" height="55.08209925678904" as="geometry"/>
                </mxCell>
                <mxCell id="95" value="" style="shape=stencil(lVfLbhsxDPwaXwlJ1IvnNP2PAHFqo64dOO7r70vX0GbJ9U6Q23qtkURyZsjd8MPb7ul1u0nh7XI+fd/+3j9fdhv+sklpf9xtz/uLPm34ccMPL6fz9tv59PP4fPv9+nRdeX36cfp13eHPDSedJF9RKfy9vclU0v8XX2/rD/vjbH2PxMmsj4lqXAc0JmYLaNTACbVQrQaQmIKsA4pQtFdKnVoDgETRnsCFQl4H5Eqx2CRFKggQx34ToFMEWeJGWQygZMoFAIq/Ug3wSszU7Am1UkFX0gs0A2iJAgJUCg7QKIAYMo8QB6BnqgCgOWEbQ5eRhjXyOWpIpNYBQChZakgiBlzSG7s6iBIeZKk3SjZLkmEdeh/7TYBCHQStJ0RLPtE3QECdSYIF6JkoS2oaLq1CHAAgDcnPAL1CExBbhxgCBXCEugBnf0RFtsFUio9aQNRZuRF8XgXbRnMnVKqATApwgtBSM/BKdRVnrkompFG1Ph9DGsW/D2hDkTMAcuOa70gOBd0CSVwAEPvaImg1dAb8VvYtgwbs61qHukgrUlCntNBoBmlVjTbnAhNZ7gPKkPCMrajSPVBb6CGALLVMvXsAbNQatOvsH2i0RsqLIzpQ0BUgnwGkJV0LtLIYqdtCaEvpIE3KJUuNjsmnZbDMuNIXcG/K4LzrAuqFwYJZW49g/zh8dxo0hATsn4cWp/U8IrrPOyr2/rnByScyVQcIMEFRhp1M09u0xf2K1UGZaT5sQ66rk49lnWYNNVAdZIotQizQwjSHbGkaA2VwJdWa6+mYFWqqbgCNY3RabdBWy4E6aujV74+LpnOVmz4DNlT2MsPO0psfMAJknbaY7ONFfi0LGQQ4v+hkkMTlP6P1OsdaFairgKY5c9p3gID+oQeIZRzDfvPZ78KP1+vD+0foy/5wuH3Dzv/3H6366vbBy4//AA==);lineShape=1;fontFamily=Comic Sans MS;" vertex="1" parent="1">
                    <mxGeometry x="482.9638696126708" y="646.9166928958273" width="11.950287709312427" height="59.86929400936357" as="geometry"/>
                </mxCell>
                <mxCell id="96" value="" style="shape=stencil(rVfLkhoxDPyauaps+SH5vNn8x1YtG6gQ2GLJ6+8jMuUBa6BzyW2YUSOpLbXkKT19bF/eNxOHj/Pp+HXzc/d63k7p08S8O2w3p93Znqb0PKWnt+Np8+V0/H54nX+/v1wsL0/fjj8u//BrxkkjyRcUh9/zm0Ya/774PNvvd4cb+1qotME+VsrhMaBEkhHAQik/BmSmrAMgR9L0GJAaJRkBjSoCCMXRQxEqAgCFdPRgNKCkzUMYWRWljJIOpCNLWqkWSGtOIyB0Gu4DjPU6hpRIFQAaZR4B5hOEVBOVMLLUIEv2OY4hVaHGjwFSem3eAGJ7DFAmKR7AgCVtxA6gPci7gJapZp+0IICuziFSAx0XQ6Aw8iqZEji5ttC+ACp00WrvlwVgPIBybRby2BAaKYKW09IDWAAMy9UCCOoBCkISJl55yIClWj2tlgMSpmopsmepgKSLUnBHLb28HvWoawg7acEeXMtdaAAAy6GN9S1WXQhgIbn6VsiSqUoZa6livTfdyqsejYAlXcm3AQT1Q6LgZKPhpl4ivulRFJJ1nLhzMBpQA9mUdedQe8H/H4CscjAaYPGp92BShQCJe8svq8BVqu4n0Tt48ZApg3OweeNUxtQW5LwWShMZEE/oMrrURaYC42ljwqVCmcyrxcQKFc23Pv26va02qOwirwABbg3RJoNbxrBIsvpei4UYUGQR+zMjQWtJ8pwy/H9jXFxAWPCCHwuhU3DfPlNgZx9A/KaGruZwC1yH/dWeURsXL6fLpnjfXv0+YssziMdmnptRVlOAfxuqdbTPxGgDS16GCpxoZh+czuENb7kbXOsNrfKX+85ob6KEWvKf9yN7uF6u3nb7/Xw3u/3uL2P2ar7Ipec/);lineShape=1;fontFamily=Comic Sans MS;" vertex="1" parent="1">
                    <mxGeometry x="494.8467626068996" y="659.2952004384924" width="13.53785978317678" height="36.96738782243086" as="geometry"/>
                </mxCell>
                <mxCell id="97" value="" style="shape=stencil(lZbdchshDIWfZm/PABI/uk7T98hM7Hqnrp1xnCZ5+7DZsI7wWtPe4TUfSEdHwEB3z7uHp80Q3PP5dPy9eR0fz7uBfgwhjIfd5jSe62ig+4HutsfT5tfp+HJ4nH8/PUwzp9Gf499phbeZKwKOExXc+/wleWT5/PJzBvbj4RuQGCkroC7h/G0gMrJTgCT4fBvgANEhiSCX2wA5pNIDX1mtAl7gux0igpGDIOoNSkY05tcMkpqfs5myg9MSpRqPlUA/P5JdAxSdL9ciB2N9htMAhSbBesK1yBoICZGNmiUUrwFGIMMVBaJrMGVlGDVKD5AHGSGlgqSrxrUuRkiZ4YMug7eBiKx7JxGCMwACd0aqxjCMlDJYy1pi8+K6SqWtt7RCzcoAOPWyit3/VK3BCvBu8fu6mQKK1lWyqasP4C4mBzb8ze2IW1RyKIY1HGJ3SArIyNkhdMawEyAU0s6LIEMhf3UAUAWshnYQuQKsiEo7EC9VayKsSxrh9A7R9NF0YmlNPaLlbI+kbWSbKDtQ6uZHqzdLf00RvDG/1EtMey4jGfpI6OPx1Gy+DtQTUndmVcgyxXTpdYA0zW6Y4ureqWUno2hSWlstRk3tsl4HuPXV4gqGGFn/93vkH4A6uDx/tuN+P7+evv/fP5fqp/mpRfcf);lineShape=1;fontFamily=Comic Sans MS;" vertex="1" parent="1">
                    <mxGeometry x="502.0126994705397" y="683.9265758510603" width="5.587053937920485" height="5.587014485431371" as="geometry"/>
                </mxCell>
                <mxCell id="98" value="" style="shape=stencil(lVfZbtswEPwavS5ILs/nNP2PAHFqo24cOE6Pv++oBm1zZU2RN1na8V4zu+SkD+/bp7fNFNz76Xj4vvm1ez5tJ/0yhbB73W6OuxOeJn2c9OHlcNx8Ox4+Xp/Pv9+eZsv56cfh5/wPv884n6S5GRXcn/MbJzH/e/H1bL/fvd7Ya5QQB3u8cOv2KYlPg32VTOyLSsqDvY/i4jqgZsllACCDVNcBzUvSERClNAJACn4ENIkkh1akjABULTFAkzACohMlSQNguhYzbZt3TtyISKFHueYijY1OjXa6obFj53KirUaZDDWKl5x4IwwAf6EEEGxINfRe3idT6wFcAFmUAYJoHQBNxZNGgN+ujYBKPRTocezDzBaSdC7isgVU4iFrD+AiuStb7ou6dYXduCiFALKERUyetDqpFGfLFEgSYLM3HlAHUqbkpRoPSQoLCWQySXNVp7gAqESWQ5E8NgIETmQyZW8FAYAncyNHadECHPNQF50OEkmVZgkvBUE8QBBNbVnnn6uAJM54SDyk1IlwAWQphBoIqSy41EhZkXQMlq2NhISyBtO41kfVWuOWimtky2W3oDemAOkDyKcLANtyoHdMNunEBWQ2CsoaSVkh0WJmZRZPkoYHW1YQnilO7R4FW+kQ+CwAO9CPSVcUmpHPSxu5VNFKpofYZ8RlK2a6IPDZbEX4ZEMAW7YtNruScV+w0sYcsDHoVqxW02hlJZ1GSDp2GgcgRm8kbTxEDE9eVrMVNXEP3s5W9VRAKGIz58pIqQGJ+rHTvnXR3gXEYAWEwzST6ByAATi+p+3gy/Qorf1UezUPhEeLXcIPlK7ndr2aMOEsTsTaab5mXow5E42zO+Qym+5XXtxYSHCH8F9tYzEj2CTt2+hqzvRbLQtcF8/K5cLOB3589LjjeWPPjvGfvaP+3x4P1wvxy26/P9+nb7/bCzRenS/f+vgX);lineShape=1;fontFamily=Comic Sans MS;" vertex="1" parent="1">
                    <mxGeometry x="509.22066888493214" y="647.4750528524125" width="21.135914566149808" height="62.350144418776985" as="geometry"/>
                </mxCell>
                <mxCell id="99" value="" style="shape=stencil(lVbLbttADPwaXQnucl88p+l/BIgdC3XtwHHb5O9DRZFsrpEpcpPlGfExQ+4Ocveye3jeDJFfzqfjr82/8fG8G+THEON42G1O49meBrkf5G57PG2eTsc/h8f59/PDhJyefh//Tl94nXmNJE2kyG/ziyxU2sebnzN+Px6u8JIpsCNIIgaExqTqCIFKBPhMKTo8EzPAK2no8Jq/xqv0+SQSkL9Wir5DFlAAXkl8/qESh68JgdcCF4al1BSGiD6ERKoJ1sDZExQThKr4JpnuoKumQvE1pEYJVN1ufJSUAvZR6XSrULhaqHnhklAETqqyGGftkvWtAELspTZvFOANIwTf1mkYUAQh6YYnQTPVTFodoVJCASxhPz3mJCSb3E5bBN9v5oLU4QVN5xr+ko+i6SwUW1dvQ/hGtfUNzXic1RdgGUVMKJ4gDI1tw9m11GyXUY9Sn5IZOwMRNBB3BIuAFsx3CbYdPm28ymA6gC4FXQ6Ndas2CqCGYMb2+8IaXSsgxCXjVWnGJ4kuzrxKCdVQSPyomRkF4IWa19nMXsASDtT8dmkVzgIvRl7xEZ60N8fOtDFBR23Su9US4HoM/XYsmTKoV4i9YIVh/nZR8BbKBZr0u1ed/+Pt4XKv2o77/Xwtu/6/v4fZq/kOJ/fv);lineShape=1;fontFamily=Comic Sans MS;" vertex="1" parent="1">
                    <mxGeometry x="572.6403643504975" y="668.7389914728399" width="14.523284936536394" height="8.247160574519034" as="geometry"/>
                </mxCell>
                <mxCell id="100" value="" style="shape=stencil(lVbLbhsxDPyavQ4kUhKlc5r+R4A4tVHXDhynbf4+dBdyTWWXQW7ymiNy+Bhq4ruX7cPzZqLwcj4df27+7B7P24m/TUS7w3Zz2p31NPH9xHdPx9Pmx+n4enicfz8/XCwvp1/H35cb/s44gdAFROFt/sCEXP59+T7b73eHG3tqCMEAqKLkdUBKSNECGNEBFEayHmJC5HVAbcjNAAIyrds3QpLBnh3KLYMsA0Ztjr1091cCoWd5GdAQbUAakZciBTQL4IhYXUAtBpAIxeNcUdkAMoM90gXNFqEQyOOQkLMFVHB0ABFiARLQnLRW5VCth9ZZLQNKj/gKyG4dqjZmslkSsAcgyFAHAYkLGELijOYUTgHFkqbUx2ONQ/gwbuyFVBAsh+KOT73qw9WB30kR2Y5b6BGuNRLbViWwN20F1d5fET37CrH2sUA+GbZB8aRL2iIghjDWgGsf2DUXZAUgqSR4McnYFllV06myit4g26W4Oq+qKpaDjmfyOHwVUNJYiOoLd8oQ2xmVu+gsAjj06b0CtPher4Ksg5tSLgKky3QHaCUlrdvr6rGr5LJcHHvdnVaQGru7MKINhAXNEeGAOthHBCejYeQr3Kd1xX4YBFVgcvIZ+sq4EeDo5EfXpL1f56Y499N4f2IEN//DymFBdfKfPzy/Eshp6a8+1z6318P/t+HTbr+fn5a3/49vSf00v0P5/h0=);lineShape=1;fontFamily=Comic Sans MS;" vertex="1" parent="1">
                    <mxGeometry x="628.8853363210778" y="659.8069320349316" width="25.57985257162392" height="6.405521130849545" as="geometry"/>
                </mxCell>
                <mxCell id="101" value="" style="shape=stencil(lVfLctswDPwaXTEkwQdwTtP/yEyc2lM3zjju6+8LVUPFhK3t9CbLXIEAdpfgxA/v+6e33ZTC++V8+rr7eXi+7Cf+NKV0eN3vzoeLPU38OPHDy+m8+3I+fX99Xn6/Pc0r56dvpx/zF34tuNpIw4xK4ffyRqmWvy8+L+uPh9er9UVJdFgfhVQBIBCPAI6UeBuQIwUeADlTlG0AZ+I6AEqhhACRYhkAlSlkAAiUxxxapIwj1DFCU2oVJC2+SpIopm1Aq5TyGEGotG2ARCpjo1sjiQBQSW8ihLAN0NiJcJV0BBG09r/XpCPsgwqJjACmAvoQQ+hbXhGVMmiEqieTaG/NfUDzdNVEAUVgSiM3FPNbhPJYJi1UgIKsKCF5gIIIxgRHVwMgfrdEUn0OAQCqesnNbAH8rsa+6PuAbMMA3HynGdDVnK84yTFlEKGZC4yCkABzaJnq2AcTREARzCTGpK0zCrgkxZd1FjWIoDdubKKuSHKZpPmkGSRtGo2jHszJKqCGKU7GKllWGSnOquS2JLBxJlEdbcPIl1AOuddkBZjPgFPRyhrdKVqgpmfAjaYRoFiKTtNKBZgrq9/SlRneRaS1sWuIRg3UlYmdG2s/lO6uv/FiI2sDOQcqo8mYZCtKgGTsmg0rGRyJq1TW9VYBkG8s3pPYxAMCpOodIxm1QQbcKI6AyN3W7s8N2R/SDJ0+135yrDuCU4PNJdWNe52H92kau+f29QF+v2RK0a0PaJps/vDEnK7Bj0nWYqCaeRD0+0HTbV37+VHPgL5v+x85zXg/4ifP3N1y65x1R/9Kwa3ve/PF5/h/Xhf+vd4ePu4mL4fjcbnaXP/v7zL2arkH8eMf);lineShape=1;fontFamily=Comic Sans MS;" vertex="1" parent="1">
                    <mxGeometry x="560.8960543565215" y="660.896346418753" width="18.374376291600417" height="33.97213805530459" as="geometry"/>
                </mxCell>
                <mxCell id="102" value="" style="shape=stencil(lVdJcttADHwNr6jB7Dg7zj9cZTlSRZFcspzl9wGjGkaAzLZ9oyj0DJZGA5zS3cv24XkzxfByPh2/b37tHs/bKX2ZYtwdtpvT7qxPU7qf0t3T8bT5djq+Hh4vv58fZsv56cfx53zC7wuOKZcZFMOfy4vaqcZ/b75e7Pe7w5V9p8jWnknyuj0XEjGAUonTOkA96s0CImUBgE49G0Bu1MENqVKrFhCpghtyHucNQMJJUo+7vSElagBQA5VgAFEoAJdqo2qDjplKXwe0RGILFwM1ULgmFK1LXKmCG7qG6ACRGgNAo2hj6NTKur0EYhtCJmnAPvvzmQI6v43rh32gEIB9p1zd+QyKLHLrfwb5Uftq7YUK4LXaS7T+aPOBgDksAS6kiCSgxnpFtylSnzrgqQKy7eZUcNG6DyJrb1QIcFXOaTB3rcwlekBFdajUHYBh6yjAiWRSaqEsFWouS5EYZakMJix1KCPRHwSwshdlqXiRZIbtPwdtuVQp4CR1x733utNJpMoBOl95kZx9wd3sBDJBBZ6ZbROkkox4Kn5McYLy+FZ3BkzUGwGYfUI5lTHGlpgzBdz/7AAy0ryqkd32TsTt3G6Gs6YJ3fBpQKZ0Kxh47uToY2AQgw62LP4GxO1+M5x15QggBh3O2QEKZF/Lg8wLoOONpPmdR5caRD5dYaqtdGlDBt9ektLQhw+ukpoTt0qqk2hA66InrkUZVnpeuux4axWmddYsK9ydYVp1h/I7TxkjdWXfLtYjiZSQanhVvZKRFYBj0qwiaGkYxLyyR+eHsVov9o0Y6GoYY2mxz1RBK+gUsLQTHpKzYu9Yp90q0H8nwj3DLS94CvVACeQz+LGplOugwDdi1Ja9e8W+OXuGbcme0VVgPj/7Afm+vT78/1p92u33l4/d6//9162+unwZp/u/);lineShape=1;fontFamily=Comic Sans MS;" vertex="1" parent="1">
                    <mxGeometry x="564.7210676325758" y="667.0442019621548" width="91.71573028813424" height="9.43653866658487" as="geometry"/>
                </mxCell>
                <mxCell id="103" value="" style="shape=stencil(lVfZbttADPwavRJ7L/c5Tf8jQJzaqBsHjnv9fakKuxUpa4oAeVBkjpYcDo+d4sP78entMAX3frtevh5+np5vxyl+mkI4vR4P19NNnqb4OMWHl8v18OV6+f76vPz/9jRbzk/fLj/mL/xacK2RQOY/93t5UyjEvy8+L/bn0+vaPlLV9j5SqPsAblSjBjB5BoBMsShAiOSBS+woJw2QE9I+oCZqXgFipAhiKI181QCm4gBAvqddSsJb2wfkSkXTmpgYBJ0DuaYAGZ+Qas/rADBFDwCBsj6hyJu8DxBOYtaAQhmcEBNVTWt15EAeJK9FJ64WSoAlUU7WWmJPDKThG0XNEhcq4ASfrUvNkwPSEJI0q02CAuVQyZnvNyi9TMnUp3PQoSGb1QEM0hwobOw9sPdWqK1SA0J1m+9LjgFBI7phL7KC9qYOpKUh0TlqWqSS4Iw013vPsHcUA+LfCEg6Zgb+ZOu/2EfAf+l9ZGVfAP9MIVv/UdlvKqbhEmvUiuU/oZKUBLMGZPIFHVBMwgpspdzlsqrIACsyG8HhBORNwEIB8CdtCB2U7QjOdFGxh4RSyjbeBATqehNfFbADbV3yZQpgTPQde2/4jLDluk1+ZRYC/z1V47+DHfej9sKe9ocjzK8PvX+MKTZ2pPuASlErVDYYBiUskmBNqWwwqCfORWxmvYwFoCFZmEyXLq4vkvcBlap2KUtbx+uHcUlWHrSkyYJjAPKmgRjke00XQhpv7gPYLmkSVQNBl9Q7/wAESKukybgk3SaBoKuUlqZVco82It6MS1EXHAfJbnWy8DvAEnO/D4x66AW1d6Mw/XQ0qPv2qd8Gur3rat+zZzb2aB5LtzI3HAfjlelSnLVH/khGi7H3IMXzNLL2GY0/thry8Po0T4tm7Bn5M9bDIblO2M783kgO9/d53JnLEw649fY8OgWcfx++8v7XXh7+3a9fTufzcj1f/27v4/JqucvHxz8=);lineShape=1;fontFamily=Comic Sans MS;" vertex="1" parent="1">
                    <mxGeometry x="431.48988625145785" y="712.608179969352" width="54.16641544571169" height="51.28680274473697" as="geometry"/>
                </mxCell>
                <mxCell id="104" value="" style="shape=stencil(lVfZctswDPwavWJIgudzmv5HZuLUnrp2xnF6/H3hKlQNSFrHb7KMFQjs4uDAD2/bp9fNENzb+XT8vvm1ez5vB/4yhLA7bDen3VmeBn4c+OHleNp8Ox3fD8/j79eni+Xl6cfx5+ULv0dco+IuoOD+jC8KtfDvxdfRfL87KPPUlHnwVCuyj6zsOd74PgdlnwKVguy9Pn4O5DI8j9fhZgpt3d4n8lUBqjgAgOAoBQuICQAKZeNBUgpC4EzRABx54CHmGceFvF8HJAFEDWBitw7Iuf890VC7z0VAidZDZkpxHSA5SVkLoxKDoGslVzSAKSJlJHJaGrGQQ9LO1oMk+kPty4BitXQBgBhapcD2SB7F0DqvE6DioKX8Tb257nO5Hpwjp6mWCg0oTY2aDiJFYlBBAkjGQ4ZUS5qKoVqaGAIUqjpNqZFDXSnP0iSNBMhVxJRnAI+CjjOAkI8aH1MNNksVlJwA2FseGugCAvjoKldMV5Ql8aCLWsRUUEFwnx1Xcq0oaMmSHj9SELDkEhVTEJkS8pCtNATACCBaahZQsVprtDE05EHqQfMQG2XEtFSc4UG6540S1TFIr0TtWwBmZqWEmZb6MkcS4lDQdSa+ij3cDXCzmRV73pYnCvfvTYAGp2KZpDaN0QibQJ5pqUz9eXlQ19l2kiigVaD27agDJA0IwLKdaOKkBlFvDTKWdZaEmQhikIXJ66CvZszyDAqUjYsG56hUsAlasgSmYugr4ZTV0rvzor3rM3aircKldTZCRUhoSrvZuApQR97GyxGe3/fsfXKp95ZifGeYfT73TWvF3HZgCsA8EOsSmNSxLGjyWs8e7haRnA7VQaZmOyRWcu5bx+fMi9UNPoyw4myowLxSTnckslHQZ4/9xdrFUdOERXD3tfSGuTz8vwG/7Pb78QJ9/b+9Mcur8bbNj38B);lineShape=1;fontFamily=Comic Sans MS;" vertex="1" parent="1">
                    <mxGeometry x="420.9019563247157" y="745.1670065590438" width="54.237468608009635" height="28.44530841479642" as="geometry"/>
                </mxCell>
                <mxCell id="105" value="" style="shape=stencil(lVfLctswDPwaXTEk+ABxTtP/yEyc2lPXzjju6+8L1VViQtK6vsk0lgSwwBIc0sPb9ul1M3B4O5+OXzc/d8/n7ZA+Dcy7w3Zz2p3ta0iPQ3p4OZ42X07H74fny+/Xp9Fy/Pp2/DHu8OuCi4G0jCgOv/+tkLS/C58v9vvd4dpeKEln30jTuj1nCq3fv1BhAFDKoQNwoJLXAamQaA+o0KXMVHMHSIkUuFQChd6lHGEMxZIUe4ASg6zWTKk/oVQqACBGW5/WmkiASyIUe4BtEQCgMTXuAYWSAoBQ6XlodkJZB2gmdYBKUkHthRkRakQI8CmS1h6gJBGkSX3U2qZMLwMaxT4IFWogTUYE9w2nRjVIkwGCO6FQRDEISeoBN2pDKbq0MqxvS2sQz0MFLdcSZfaACKhuhXTGdAQq0BrxzKUCeNBAXH3QGZWrhdh8WitwyfZzUmnEoZYzgHepUgblbS4lB7DiA6XRrPqdSw1KnzV1ddWqUxrWiOO++K66dk1oZHZEQ7URKKsHMEiT9WidRY3k2DooN59XxNzYoy6GAqtvPMH1aKaIYyguBoY6Y1nytRExwK7F6AEorUa1u9rHHkVM2w0xO+HWlXIfoE5Cd8XDDWFid0KgBmKQ6mvJtijgBDEp7XkwKhsAVPEqIO9OLgOil75apzZfHk8y1b6Bik4ryxPTTAWKaSWQvhx8aeRMDbiU2A9ASaY5cHlMLD7oFKBWRhO6nulxNEXThjWkUzKslTI18Ls9UwBJCr6S8uThinn05hFcV7NRKVGC5m53hkP3zPcbrwbK1ZmjCYZ92wc45SV/gYRpJlsu/+nsD3N0P9W5M8hcpjr/P2d07gwK1Z5r8Z5M3v28u2lvHx9vyZfdfn95il7/79+etnR5t6bHPw==);lineShape=1;fontFamily=Comic Sans MS;" vertex="1" parent="1">
                    <mxGeometry x="526.4875191208341" y="711.9218833892578" width="31.471582496623057" height="54.23696320998883" as="geometry"/>
                </mxCell>
                <mxCell id="106" value="" style="shape=stencil(lVfZbttADPwavRLL5Z7PafofAeLURt04cNzr70tVkGxS1gR5ky3OisdwyB3k4X3/9LYbYni/nE/fd78Pz5f9IF+GGA+v+935cNGnQR4HeXg5nXffzqefr8/T77en0XJ8+nH6NZ7wZ8IFCmEExfB3+iM3Su3/P18n++Ph9cY+kmRjnyqltG3PkTiuAAI+wBTZepSp8DZAmJoFlES9bAMSU7Ex10i9AkCfXy+ANkd1F5ArBQtogQpwqRRK7AHctwFVqDfrUiJBgD6XdclShIAWKRRbh0A5AIBQ7gYgdY5qC1AtNWImAdxTl4qNQdklIK0KSLYOnThDj9hRiQKoc0uUkw2ZBKWozExeAqCIAu7eH2UFIGpnqsXZB1Djnih2508AzdzL3OtLxaiDXu6Vuj0/Uwb5783736ggf/S181/FACWoUrWE4EQNZagQW61gTOou1GwIrEVEMfCqBio3qG006OwBBbG6eEXlRgKypLSOtsy8HLHVZ90B5CNxcUTiQBF1WvQirxILmKed7JiXYBVannlz7YSGlKVRtEUIcKr14M9fBu8WjZxcBzgEe6Zq7SOsmDZCdnMcn99WM5MyUK7P2nNYLSKiAwh9oc8EuFksIKBQtgCdgFCN2Ldy1SBQ32jvW1Z3rL86xV3VxroAQBGKTl0CJlKOPoixNCBNSTvXTmWdEgn4JDK/XkS7zmHd3/DE75C6nKAYxinvdpeGJZKKbbasHwCVvq4RCyDNirYFcFzKhSpI0vgFB8CjTQeZm1QlQNFWAW22DIXxaKPq2mHZfjaSKtXbozW7UHNFwxtq9qwY7UHA4hV19AewSEsWvT1a7nhFuqUkd+3DSl50pIGR8Nmb18f2+nC95r0cjsfplnj73l8L9a/pSimP/wA=);lineShape=1;fontFamily=Comic Sans MS;" vertex="1" parent="1">
                    <mxGeometry x="544.6083315191831" y="744.0495816370913" width="36.14434740356932" height="29.703698180958927" as="geometry"/>
                </mxCell>
                <mxCell id="107" value="" style="shape=stencil(lVjLctswDPwaXzEkQZDEOU3/IzNxGk/TOOMkffx9obqURcjaTG6yjTUJ7C4Iasc3r493L/tdCq9vp+P3/a/D/dvjjr/sUjo8P+5Phzd72vHtjm8ejqf9t9Px/fn+/Pnlboqcnn4cf07/8PuMk0JNJ1QKf87fJNL074uv5/inw/MyXijWIT4mKg0AEolbIFOr24Cs1PIA4EqFAaBRiAMgF0oBAIR4BFgVKgIkymPSpVABObBSHQFVqCoAVKppADSmkgFAqI05aKAoAMCUywgwHgDTRpPLIYZAAZQpsteSWlogiUrcxvhICuJXNLRMCmiYtzuzUEmBVufVZ5pNi0gXpCMHRaAsrEBpTEAqlEVUCmNFhTvv1ytkyh9TmOyEhMcksjIP4CBHSqOOzB0KtmT21JEFc4cCP8vs3kUDYCDtYtJ2HcO6FFihFgo8AiKsknnLeSEpFaAMtS2FFQBsSaU3xXlL5mdgT7OWrnIIaAXtRZwBCTK9sPuMsKYEiNDZLksiUJmarysXyiiJumKukqAy5d6BZkCDWWvyB5wB0ApNSYoHMMih1Sv6LkB9Tfr/LaqE+oy1xSieB0YA7m1owTTqxLaC62QmJgFdwHJwfcbkiniwKomrUuhrbvHguvFkOWRq2zF7wH8qtzwamgeg1mdq5VUOaFgyP2jxVUL9fnLcuCUjLoIqGcCvkKkgA+lKraXPW1tJF7elShHxsJaGTXTIotx/XgAyKutnAS365ppDP4mvnyjB85A/GIurb5V27jYgPgl9Wluc7AWdu3k1OyQob16NY3YSIx5Mm86iYmcMGilTn2kXAxMaBaIpZ1RrxQd1XFm0VngXiMVbtCXYNWwkc/eZ1mAztqlSRuLsTEIHis1wZfSDtbYIiLMulNjnoCBpI66MALueBHSfyX6snIhDgOINNGkJiU8puzlU4KwxzaFjuzf9Iotm7ne8xUUUndO2AXeg2FU3oS2ZWscqzReWrXhnuNivvlvx7n4V8X6at5uNsSjepN1cPOOWVKqLR9OeWHrs4tF90u467mJv8WD/kvvUf4lPaP/SJ+xLPOqoIl7UsXebrYuMc36Ekp7exYweSHDi+fS7mw/j7eHyoujh8PR0fs+0/N2/WLKvzi+l+PYv);lineShape=1;fontFamily=Comic Sans MS;" vertex="1" parent="1">
                    <mxGeometry x="356.2885268179598" y="787.9216410889151" width="32.83513732248809" height="59.47658247421355" as="geometry"/>
                </mxCell>
                <mxCell id="108" value="" style="shape=stencil(lVfZbttADPwavxK75F58TtP/CBCnNurageP0+PtSFVbxUvYUeZNljpbHcMjdyMPb7ul1u+Hwdjmfvm9/7Z8vu4182TDvj7vteX+xp408buTh5XTefjuf3o/P8+/Xp8lyevpx+jl94feM40ghTygOf+Y3iXL89+LrbH/YH6/so1Kog30UKgEAGoU4AKYj0QmVYhkBjUQAoJCMLkmmggC5e7zELD0L9wAyupSUFMWQqY1B50JcYAyqA6AwRRRDozrGUCqldh/AQrENgFooMAA071JjCiAGy7o4QKGo9wEpUx3T2iwqAMjmEntAqvcBNVIuK5dADM2IIKugQaVbXmUpwsI17WReAKGT5SZAmUrzJwQQtFpaowc0QA21FnUxCMySKuWx41qiCk6IIVAIvhAZBbFOk6lAAoBKJY0A61EgTJamOLqksefhNiCSNg9AdDWPs3qAgpYzMkn0AMRvI2caC6GBEnIpeK20LAVQuarEruUqCQY4+baoMgCYS06YjH0N9SivAJYG1KOJdJxx1hCC0tqIHVutR8GAsDK5ShsAVVrTSvrsE+iEJetXQRfEVu3ae9WjjFxST+9J23CLemGqPap7OuPobeRDhdPi1djoXZEIfBZQQ9eIBWBiCAA5+XXmSttuj0UbUeKPqKDUXCiNSmZSldCKVaiwz6uiQqx6mqF8J5Kxf6pAZlg7juQuDRIj9pRfLT8NcDt4ibHtCsnkavjY+lZBQk1D3U7MUMJMTcbv2yoUAYnYywtXaohCK/vQV6179RpbPzJcALLfkgQSNHdyLe5A9pT+7+INdKZ6GbJ9CslWn3fdPFBGe3MkFmcf0eovfTx+2KNuj6tZE+BSYb1b2dknEK7t/Y5rAba63deyTycaG1P6HNc6OW7bR99bQhn4/9n75v/t7eHjcvuyPxzmu/H1//4ybK/mi7Q8/gU=);lineShape=1;fontFamily=Comic Sans MS;" vertex="1" parent="1">
                    <mxGeometry x="395.9010027595525" y="803.4382504927044" width="26.847670072046114" height="50.52428443753821" as="geometry"/>
                </mxCell>
                <mxCell id="109" value="" style="shape=stencil(lVjZbhsxDPwavxIiqfM5bf8jQJzGaBoHTnr9faka2lpc7xh526w5EckZHtqd3r093b/udxLe3k/Hb/tfh4f3p51+2okcXp72p8O7Pe30807vHo+n/dfT8cfLw/nv1/tu2Z++H3/2//D7jGMS7SAJf84vpBKXf2++nO2fDy8X9pVKnu0DSdi250alTAAO1NI2QIVUJkCkINv2MZLM9oECcCgVqnF2iFLdts9MIfsAAgggKYU2A+pI8vUICunskSRShiHXmTRlag0Aqo9BK1UASM0DIlMELhX2LGijCrJUCzHPgEwRCK9Vyk4XQgUIg8MihIFIQpzhETwfkWWI5TpAhwcDUJQq8KlmanUCVKWM8looz1Q3poLUZ+Xg5XqjIAIld4RRB9Jkeg1zSVviGhJ49E2mmeSBS8aszuJoiRgQYepMMxFNKKOK4OHxAsB9LCqlWUym4Ib6UvZZMvIZndBIHSDCtPZGkz0gIUCmElcngLRmU46uYgBBW72ktsoSkGuOxGnFA4jBAMkBcBvI6oPuWgKNxhp+nZnuagUnJFP/zEOvB5DWlCjOWeoVB1xK7KfuraKOyxS/OAIFEROF6qNuaAiJH0KW14ZcYsqOOR1VuwlwebVZfMMlVxA2NFDbSL7hm74hwCb53JhqIkFUm5gcwASMqf4goPrJW4UiKrnseSiZEuj3NtvzLI3cRhquA+JQ8wIIcMcqleKspbR0nutztPqJYnljAChtKGcBxDFZt7JU56B790TNVYb6LwCKpmIgndVqDV0BD9J827BJjNQq6nnoZwJpiPh9xrbxAsRnu7nMLkmGxEkZi+rSyUxL6DqgQzkLQCBxNqidS4UiyGpaxcw8OttWl3GbAEc4siyH0YWwTIxNGuIqq6DgOPkVTiPcNbrHszIUD8WedHeDyHAA2SWprvb7hC4EV+wLupdRad4ebnx+Npi9gIh1LJwXGUL+86p0Iux5YXi72Cu8YYVB6EVpIopXlx8NQ1Ub9jqLtLcbRPAHPxzctreH/18pHg/Pz+ePHJe/+68a9ur8RUQ//wU=);lineShape=1;fontFamily=Comic Sans MS;" vertex="1" parent="1">
                    <mxGeometry x="424.1381752435193" y="803.8682757059084" width="27.2316969001871" height="40.485813063658405" as="geometry"/>
                </mxCell>
                <mxCell id="110" value="" style="shape=stencil(lVjZctswDPwavWJ4E3xO0//ITJzaUzfOOO7194VGJS1C4mbyJltYCcdiCWjyD+/Hp7fD5Mz77Xr5fvh9er4dJ/9lcu70ejxcTze5mvzj5B9eLtfDt+vl5+vz8vvtabacr35cfs1P+LPgPNkwg5z5u/wRKCx/fF3Mz6fXlbk15F1n78insb2zVHJnb8gxsGfKQdkbM7b3iZxX9sGO7UMgUzp7Swn4Ex3ZovJj3dg+ibu9/5lSAfaZvO39cRRAwFkC6BNqGXrEhmyfIQnBAZc4UupD8IZKHAOKqR43QCYGRSih1qglNVACQRfJUl+FaMkC2pVCrqdpzBQAwJrGs4pIvpZy9IqYegCTR0EwudhTw1fy7gMShT6ILGQCpS6euOcGW2IUgyHuXZqLD0ott1WWiqUMSi10zX2WJG8eBC05MVYD/ke1DxAmGA0oqOWEG0EDEnhDallvAKYC0po2hRMCM3IpUu7rILVPIK0CSH1DlFjZNXJJB+1hU8/CpAAOcknYz0UDUANlQ1llSbQYUcPV22sAaGohX/DaJaSVOVLZAAoiX9LHm2ibRf2Q6/G6KlxAQecq1itqZMAlcSkqLjGuQ6wn8qofDEqr3/RDqaf2qEXVob6S21GP8qZHGZ277RBcAZC4SkNoYRJ9Riog3FDClMmgDtqco1LqjIKOVbdWZPLIJWGfClrGOTDNzCfUpqkdKPWnAcKNoI4ghrKRNwMfB4ogS3JbTUzyCDRiiQOqIWY+omNUhKmPQUaBiOYZGYD6N0TGx2hrsAbAwwYnrWRByAfozY6iAhjokuiMmh18qLUfqbFyyX3QQEkPTLI7ZAQwdbVospGpAGrEUAewBmjj/v420J7XALYOjvsAS1HpPVxnfNQzH9d9Yn/98bVI9/WBQcRzfErs6/i0n1ItqxIvolGsy9E6P4BFcuBu7YFc+E3BbF1v9vOjtz3ZR1Hv28121bahXXtTp657OtE2LA9TYlclf2CuhmdcXKOPtAQnNqM7PtXVfpAa1zuD5xCZ5frKhro6DAr7qc8KH5rLxf0LxsvpfF4+gKzv6y8e8tfytcQ//gM=);lineShape=1;fontFamily=Comic Sans MS;" vertex="1" parent="1">
                    <mxGeometry x="441.9481293859908" y="801.668461562163" width="43.24273225109928" height="60.780161591970256" as="geometry"/>
                </mxCell>
                <mxCell id="111" value="" style="shape=stencil(7VjJUlsxEPyad52SNFrPhPwHVZjgCsGUMVn+PqM4AmvGrx1uOXDzMi1penpay8JXz/c3T5sluOfDfvd182N7e7hf+NMSwvbxfrPfHuTTwtcLX93t9psv+93L4+3x+9NNj+yfvu2+9xF+HnGeauig4H4df+BAXP788vkY/7B9PI1niqwBqa4DQqKaNKDEdQBHKmZJf4c4C4jxTA4NzJASBZNDa+uAnMjlGcDkwAyFqTiTA6C1OvJtBniKGQCEpZnWUGHSlan6CeAbRUCrLKnOOUjtPc6hRgMAtAogqhk8rLQA3MySdxQAS6VRm6VRKXkcP5OURyFXFzQLI+IiOGIlJGKG8UUlTA2pwo/hRrwbCa3Ft6jiA1q/9HpT8Q7xwxSSioeK4NElb/EVrT9SVKIeXnA+Xso/K66SB+O3QFlJOlMGCm2Z4kyQKCgBhloz1iIzgBS8e6V8IJKHpLY6zO1V1JEysOxWdJsVWROQqdBUZ0BLFIGOBODnOsucBXhL8xTmRhbiGM0gQps74YS489qQSpgpMvK7Sm4WnzDNgNdaKMyVE7kEBMijTq8ApoSWlLW+hYeEHNXMIItMyJFMDtKDFQEMS2IiBQFMHcSl0EZlSy0AD1rIikkABTWEyFWxxMPI1wBNsZQoox6V8RRLFdahA1QH+eHNawCnABHPEEYLn/Sowz2aZivrzoPq4Ixa2zCSNWlwfReg6v2wLwltKOVc0mjHzfrw2WlFW1Aef58W7kJPK/HVSzMov+/iwzbzPoAUzs0sFdkBEMDrS0BmeAkQtaqNXTY55N6iVnVSih4eHSSHPNdBLh4B06pykKsNOnyKRyhv9RUeHj4O0MvHAfo/P0BnffjM4y69ZsDFXCKReYlT+HlBogi0c8oMUSkiUUN+mohV41cKiCOn94ToLt7+ZxGJF6Gt1r4vCKCAPrYvGN3tgI7sG0kHgEawrzDRw8607zwxkAM52JckAaA6mKcqiY9ASl4fFvr4YJNyQzanFIEEZANxOt4DSp0+4omMAhxfdQK3cQxdiVetKbpG3mLj8zDLf1yPnBJAvUy+oqkEFGT4ZIa3TlOvC89+Rg/95fI9erv0NHoxXj68vcPebR8ejs+4p//rd1v56fjmy9e/AQ==);lineShape=1;fontFamily=Comic Sans MS;" vertex="1" parent="1">
                    <mxGeometry x="508.241774904403" y="822.563263295471" width="85.10173381340745" height="31.005058408975042" as="geometry"/>
                </mxCell>
                <mxCell id="112" value="" style="shape=stencil(lVjbcloxDPwaXjWW5Zue0/Q/MhNSmFLIEHr7++qU+vRYBzaTN0K8WLJ2V7I38vC2e3rdbmJ4u5xPX7c/98+X3UY+bWLcH3fb8/5inzbyuJGHl9N5++V8+n58vv79+jStnD59O/2YfuHXFddIeALF8Pv6RSTOf7/4fF1+2B8Xy5mJZViv1AJYn0h1WM9KUQDAAkpjQIViug+ITFoHgCTKDQAy6bhDEqoFACzF8YxypAZ2ECEuA6AwPFUpFMZTKo0yOFZZla2mHuRtgFIdT6lqP7ebgBT6qXdAq6Qoh0o87qBCGgGA/Q5aYUhRegAzl0KggNn3jwnzFkpJ7wOMamFcn0lASKGTfz6kRgyYMYc7rxdKSG6eF7VSQ1Xz8VemBsSjVMaalUwF1IwrxbEEWUlAAnai2QHkPSm0sWTJiAWYbf+uo9iMugpqnJsnhWRikHRZAezcFNDOpMUOkKgAWphS0pgDF1w3+73gAQmEZDxu6gHIVk2LLgcDIClo60RYACpK2hrBSD5jV0IhaT+TGdAoAuNe2MOi+zBKwmzSdR/7CbCFAZxCJ09AADOIMSQTeUKA0rm2ACCrt1JnXQFQIRJJ9IACNGp0jeIBSNQaKUV/SglMAWpN3bFPKaPCGcApqOEc4oquFdNV/ORjgIB2WJmxCSIDn7HCpZWCEL+NGnVlGxFY39RgV6JGfj/RO/ikI/IZ6yjqAaipG8APiA0LSHsHXFCj4h38RBmoIAE178ZG74io8VGAdf3spm6cdJVOhMWQiwaNIt4EbAJE5mptObq+az4CJJpWesiM571EYayDdWIGbLXZwflSSXjYCL0HzuOPuTegxtQ03VScYA4sJOMptUgVT6A85mBjNKLG5HMjwKytovtP8aOA4g4kwZNvCgnsMA3qoy+10KeJezskN7bmbjy3c2h+OimmclCHiRpjDiXCC5PdHYK7w6VuC/fuoTrWwfQgwDWs0mXUg42yEQHCatbAN6xK2blMwHe+3pNno2TYToKfxwT2hkDswofSWd0nI3wHCN6/GPZ/9sHgOwD7S0aAnTn6PhugcQlVccsDusHcWA6onKmyDwZUdWUPJk4gxUriU1VQpurfUhjK8IOvTe8utw//H7Ze9ofD9V1s+X//EGZfXR/R5PEP);lineShape=1;fontFamily=Comic Sans MS;" vertex="1" parent="1">
                    <mxGeometry x="626.7794980047595" y="806.3705960172872" width="40.73584944915375" height="58.287426939772516" as="geometry"/>
                </mxCell>
                <mxCell id="113" value="" style="shape=stencil(lVfZctswDPwavWJIggf4nKb/kZk4taeunXGcHn9fqBoqIiRtJ286sCRALIDlwA9vx6fXwxDc2/12/X74dXq+Hwf+MoRwuhwPt9NdnwZ+HPjh5Xo7fLtd3y/P0/vr02g5Pv24/hxX+D3hJJHkERXcn+lLpBD/ffg62Z9Pl4V9jpRiZ1+puH37FIm5s/dMSfYBMVFwPUDIAY+4UCkdIDB5BgBHNfSASt7vA/RIan9GnCgXAHAUe5dioJT2ARqiSA+o7dy2Afq7P6WkiazAJU+5jyEH8hkAEtU+cbm0c9s+Vk+xd6kwpBILcZ+HoqkEQcc5xAYQ3RMEnT1J75IU8oCtJVPqd6iOCqBGDZRTD2DKIIaayZsdtOBAPVRpDsyARB6Qr1aqxqVMASROAcW4VIhR0NLyOgMEslU9jj35dE8Yg6eSLKCAAtK8xj4G7xw5kGqZm8Rii4q4oS4HC4iggsqKrmMuQSK0Xkwnq3Nv2wYEqmaHDLtxmcm5IFNGLulvw75IGRR10RANN7j1tu08aAWJBUTAPk21CxYQMJl4BUBtYyywVdAO8Vsa1RYAAXRV5uRq8yCASws2L1Jd0RbS2LxgHyoIXS+tABW1ASa3quoEzlV0vWgBKAZRsbHaoYJUiyOuFoDo+mlAcquglX1IbfDGDEogDzp4zaSWeYk98cD9sWqrQvz23rKvRFhy2Q65PFf5dgi2pFVrIM3n7HhQMYPSvKoFVUsOBUyhjzeqMEBJthKUI+ySXkVCH0AoUDb40trDDFAfkRrLtq36RAkckapisQOxZWWP2LkfPhnStLiWombvIEt1Vkk09hHZp6b6P+yRqlftGNnYo3anNWIkt9qjsROs6HFQwmjvYrt+RPa5Lbc4TzQ3tYv0U823VrbXfO1FDLdSafyaKQprWO1D748KLOy/KUqGPeWzF9X/2+vDx6345XQ+T5fq5X97i9ZP0w2cH/8C);lineShape=1;fontFamily=Comic Sans MS;" vertex="1" parent="1">
                    <mxGeometry x="673.0777444350599" y="797.0424978196843" width="17.284638171346685" height="69.40665915854521" as="geometry"/>
                </mxCell>
                <mxCell id="114" value="" style="shape=stencil(7VjLctswDPwaXzEkQPBxTtP/yEycxtM0zjhOH39fqC5VEYq2za3T6U2WuSQeuwDEnVw939887Xccns+n48f9l8Pt+X4n73bMh8f7/elwtqedXO/k6u542n84HV8eby+/n26mldPTp+PnaYevFxwnKmlCcfh2eZMphh8v3l/WPxwel+uZAg/rY6FYASBQ0wHAQsrbgFiplQEgZmODgDwCUqSq2wCJ3cUZwFSAD0mI2QNi2Qao7ed8qFSB0xqJxyiJUgV5MECqPkoB+GAmiTuBKSUAkG7xDLBUohPM4jhmusHEaaXYRoDlXrYBOVAVD0gg09moVjxAgA85E2cPKMik6vVjTidAjWI+ZB9WRQAmHcNq/G3A6WJOO2rYG5DpkrymjXyMABbE0emUoOKqkIyK0wKjVK0KjZnOZiQAtEg6hrUoCVBca5RHH2wLAWw1QBvZ2iysGMCj002pgCi1QjL6YG8yyENLlB2gUUAnxM7+BQAmrni2TmFAgOTrkgEE+FCjZ2ursJCVtjohk0TMVpe4RIwBadSDxa2BTJtJrsxUixKo3uZ0GeldrRbisLpMm0JQqbT9wgrwk12bAioeoMAHC6IrxkYWASYZmVPzTqO2OwnIZTpQRpNACBSc5Bjy245Qxw3FCprJudAoBOiqzlQs6lW9n0oVyJxxLYyJWMThdYT6XE9HgGJZuVfrhROoadWwClPGTcuCMjph/EIEfztAOjtn+gk1UAastTunbYuKhgf11TVb+QRRyuzpmiPscjoLZu6jVsoQIPXhfO7UArvc/0H0TwdR9oB/YhAFdeZvHESlc3PxnaVI0833oGQjFuJS833U6BhAqUzqZ2NVOABZmnLzANjl7HN4jJKpPAAAezmYz4hKqyYqpX/ObuzfnNwKlFteXSEo1HPp9wWz/bAi1RWJSNGk5Md6hnNSDCSjkiMUcuSem74+9Ma1ld2Q3PqI7LEvJXbrUe+Pq1qH95/+Vm8/4L+Fo67ig/aXVaHr/eH19dbwxjYuUPHTBde4PsGh880XYr9dbw+/bt/uDg8Pl8u75f/+ts5eXW765Po7);lineShape=1;fontFamily=Comic Sans MS;" vertex="1" parent="1">
                    <mxGeometry x="689.986906633621" y="825.9936503364647" width="26.18166497333732" height="41.638491428881316" as="geometry"/>
                </mxCell>
                <mxCell id="115" value="" style="shape=stencil(rVfLbhsxDPyavRISqec5Tf8jQJzaqBsHjvv6+3K70NqivBMU6G295qzE4XBETfLwvn96203s3i/n09fdz8PzZT/Jp4n58LrfnQ8XfZrkcZKHl9N59+V8+v76vPx+e5oj56dvpx/zF34tuEo5zyB2v5cXjoT/vvi8hB8Przfh89++i2cKAuIrhdDFB6plO14K+drFF2Lw/ZCopC7eM0ndBkRdv9+QzxTzNiAxxdJnLJQQYKBUHFwhJ4r9lmYW/DagMOW+CEoDqlrJVGMHUBpC3AZUbwFKgwQACAOgNt7uAzJJT2uOVABLtZJzvTI8+bQN8M4NiEjRwSVKn4TykEEhqoq/L/V1l/cBqgSxgAQApbQcbwAVFEJTTDwAQCGKkB9yyKDllHZXLIBBDlmVYGgtFEDlcqFsABmKaQYYlhIlwNK8pd5mamyf2EraBwtwiCUhNjkEiqipo21qBTBoCJUGBwtALqDiS84CkJOpvK1aIzFqaqEitg4OAXTHQ+EqsG8FOKNW9TbcotVUelXXlvXx0KIBmWtp/XUDKGCFkqxr3FjVlpjq4AIFuYD61uACAfeoTaJAF9CWq2ILUXCPJlO51M6MrS3ZQqiYEK9u8JnYmvA/ASIFIyY1QyBXPXilT3puc1Tp4VjUUkLbSJZWHScE+b32vDl4XTsBtrQUe2NK0prwfuGynRGj8gZyyN76fcgUQA4p2ilR1NCBfcdVmyuAW2Xuz5XVypsj9JnA7ThYAY4YSENCE8LqAhEOG5yJ+572Hp7sXtrIthYOnnFiSQ1wtB9GxACt3lkL0ykafF3vGc6Eo5F4GPW4tfZWuHFgyKT6hGH+A2aM/l0T0/3Ctua4hkdw3gjlYMIZhEfropo7ODlUItWGI7+yElMvQfPvv902PwzXh+vF9uVwPC734tv/7UVYXy2XaHn8Aw==);lineShape=1;fontFamily=Comic Sans MS;" vertex="1" parent="1">
                    <mxGeometry x="712.6756990681279" y="809.6729641327127" width="26.925853884742633" height="73.601787668704" as="geometry"/>
                </mxCell>
                <mxCell id="116" value="" style="shape=stencil(lVhJchsxDHyNriiCBLez4/zDVZZjVRTJJTvb7wNGxQmJ0bTjmzxGcwEaDYC7cPf6/PCy33n3+nY5f93/PDy+Pe/Cp533h9Pz/nJ401+7cL8Ld0/ny/7L5fz99Hj9++WhWbZf384/2gq/rrhaKeWG8u739Ysn5r8fPl/tj4fTaC8U62SfKQH7ouuHyZ495QoAiZyfAYmkAABTMDdg4rgNyIlYZkCiAHbIjkKaAAE7KQnxfIdQyIMjxUxxvoMIJQ8AjipPgMjkgFt1PT/HQfcUcKSQKccJkAJFBGAq8w6pkgMA9bqlUqAM4qDUNNTIesiwDWD1epkAxVEBO3DsYVoAgQJwq5LZXLroEg4ANHDzpQsmXyGemVEyeQHMoBRX64MoCDmzvsD1A7k5eTT/UD5rppggqyIgotoI5EIB5Jp0Ui7n8T1bN+xF7H0T4JD06Az+rCAzxWpF5e7hrfPM56+BKrDP5ObErxFqkRLO1RUAOIh1//nGqvkF3JhzZ/wAYJTH3LVtAXiKIGmURGEFQCRtLM0rALiDX5RnACB5bHGuFlBBHPzixCHQSE81k02mqVs9yrR4gxoOxUGsxCug4DsYPa1am7FbjRopoKDAqRNnPa25i/4WgFdHqoDeSr7oLCChI6liiwUwOpKjWKxbBe8gq0gnoAFtBwMIVBA1lrI3AFCZUi+J4ZLHXvKdagMg4Jy2+eDxkYJV+rYDTlGrSx62Cy0fnPVSQJEWW8w1cA55KfaO6D+1tamGEbLY2bUFEFN/Uu/8ttxqqZEo45z+GICr7ZFqgW5tDb+JQ4V30C5sDUBNiRZF05Ww0zoJ2JdW9K4441ZUKtBJOmKYjMZSvJx25DY4v1u1bRXOC84SVdueApLN3Wgjkea5VaPtYBvjKM3+1ykO+z/O+pU1k4B/YpeSYX0PJDj1/mNoaxGnc++5hjZV0Nxsx+YisOiwCraZK7QHeqfNmxmkjXxEAK2r0V4ZNZItZtn6FNZyHZ1M0LS6g6AFLZxm5MxwXAs6CxkAw65NfGfNMjZHyCOpVn/bFzT6J/tWoHtWcIfkbU+lt0JvBalYwW5+QyOG9FK/PJBoZQTJrEQo85FU81FD38RhpgZLLxK3AYWceUZimA+tG5/dGnsbd9s+2y7PwbFc5dwk9FJStuzFG3uUnq1csLUHHlV704q4Pg3ctq9d3gZ7dH4NqD0/msBaAQ7GHqVBK6fF2Gd8/mrtUdYM9X1hEJym2gaG0/25avMCYuwLSLIPP7y+a68//r3yPh2Ox+sj8fh/+yqsn64vyuH+Dw==);lineShape=1;fontFamily=Comic Sans MS;" vertex="1" parent="1">
                    <mxGeometry x="552.5368079519378" y="887.4103123650041" width="124.6358313462315" height="119.14661877993838" as="geometry"/>
                </mxCell>
                <mxCell id="117" value="" style="shape=stencil(lVjJblsxDPwaXwntEs9p+x8B4jRG0zhw0u3vO6oh94mKJ8jNi+aJy3BIvl28eXm4fd7vgnt5PR2/7X8d7l4fdvHTLoTD08P+dHjFp138vIs398fT/uvp+OPp7vz9+baf7J++H3/2J/w+44IXlzsquD/nX7xk9++HL+fzj4en7fkqOc7nvcR6HRC9tDIDmjRPAEW8mwC4MxBAchL9BMAjKgMkyTMgVfGBAOB0mAAZJhGnk4qbo1SKFGaSSpoBNYtLBIAgznlrQXyhPoQ0Axq/IYnON2iQwqIEIsyJ0yKuUS6lGeCdE0fY552kNl+BZzAnFh+ShEgukDyTVWGQXj9/MfcS1CyJnq9zmhvIS2IabfHURKmtIxoX3ql4QlRfFgCuJAFCRKvOpdCksPpPw4ALIIqylOHvOaYoDiYYeF6cb0iQEOJD8cOACyCIktpBLRqTYhUlaW4wac5bzBJIKXTazMRA3Jhg9OKtFsAyDSKrWgCrf0UevAUEUpyo9uwWH0hYtVkdRpRiJgAd5N8ofSDlA4B1ulKVBMD2kkY1DPpTkwU0BkCmDTWUSkZXXbWARpxuupikQ0beBpSF3iqZ0TtJqhbgSOLQm2qwUQrsBj9KfpO4+A7AhLXQzgCTmolSlsx8SEPnNvRmutRAtWQBzOnea5aKY2HVi2xtRYC1h7xwKY2Oeo3eGmyUPBMBkHmpaSVs3bT8TeYaEyaVYuKKImROtKEqG/YV0iA6oHwEADVO8w0YhpSYhDbu50SgZyUi3wXknCefPjKSuOZiu2IONKwYEI304RFMBbrQzYkr6DEkSlgF4uw0vKpEmEK2iatuaNvbAGenYrTuwgZKtKA5ShjIMhuYmq1R6IKSkoNJpkbV0zx0p82My32IaBBtuYFtWNnOP5CqQkzqYm3G3EC7IgB1yQObowGIy8JUGaAsc2jlUYrWpL7VkUz3WdqIAN9DkTij91hwmA99GzC7Nx8FMK2HmXyeL31q6yeMGr9yPMxi70c5XVs2zKsA2qJ1KOI4jspgleZsg3a8lJep3o199O3z0S7EjnY2j/6fzXm6q5bB+M15Enxf7W7rBp+uKVFd/CVcALeqtaew7dzZjuPFMbH+6Jukd8/jw//XVveHx8fzW6/t//Y1F346vyKLn/8C);lineShape=1;fontFamily=Comic Sans MS;" vertex="1" parent="1">
                    <mxGeometry x="452.95356579645204" y="1038.148320754387" width="24.88722517230575" height="77.8727657841316" as="geometry"/>
                </mxCell>
                <mxCell id="118" value="" style="shape=stencil(lVfZctswDPwavWJAghee0/Q/MhOn1tS1M47T4+8L1ZFsQvZ28qYDSxDYBQgO8vC2fXrdDJHfTsfD982v8fm0HeTLEOO4326O48meBnkc5OHlcNx8Ox7e98/n99enyXJ6+nH4Oa3w+4yLTLFOqMh/Pr5QLf8+fD3b78b9lX1oVKSzD5FygoCYe4BSqABQqbgdFZIMAIW0B4hQQx4K1dABUqCGPFQKpQco1QYAStx7yJUiyJJlPfUxlESsAFCJuQNUhh4kziEugEwJeBCl7DwoFRB0FtLYAVqmxvcBZSWNZh4AD8rEvfg0YoDMNC0AIQby1kJNPaAFADCmUw9I1CKQBrNnTjMpIEKXtC8A0yMgQhsF58EyjTyYElwQij0EX3IGqKDkWiN2XeCSh9uItApCqQGBN6YsHiCAulp9G7A0JSAOKxhNnggBaZoqzMVQKAAiqv3u02TUMIrBqHYxyEzN7SwF4lVFBBC08VBd0FZzIAajukYPyEh9y+8rQEPqMx6yj+GD+3sF4fWdINOT1KLnAcagpE58dsggQJuP2SstKZC3rZech0aKOpPMUruqhwIA1nyleQDU0lreSxo+AQBB57jqMwlKQ4onbjpSQJuJ6guoLTV4GxC8+KykFE1MmUovPms8jMYTJnEHb6AIPNh41CvDZgc0nYifZmw4QeIOfj82/SjIKVNaj1cg4NWBaPNbBRSwrwTLQERHrp8apvEM2utqxBWwf5vdekXgfhf9TLIo6g5bJThzNA0nP8AwNVCSZR7eL+YJpMYaaXPmAaxuUs7eHh36lugq3h4xleYB82If0frF3y1sg2h9m5v8fmCtWwvtsx8og5Y7hdfbRwpgP5+9rf3f3h4uV8OXcbc73yyv//urpH06X0Pl8S8=);lineShape=1;fontFamily=Comic Sans MS;" vertex="1" parent="1">
                    <mxGeometry x="495.8213090421409" y="1032.8758791338353" width="19.17413480695766" height="63.67489315300717" as="geometry"/>
                </mxCell>
                <mxCell id="119" value="" style="shape=stencil(lVhJchsxDHyNrigC4Hp2nH+4ynKkiiK5ZGX7fTBRhhExmnb5poU9BNDoJjgbfXjbPb1uNxLeLufT1+3P/fNlt9FPG5H9cbc97y/2aaOPG314OZ23X86n78fn6/fXp2nl9Onb6cf0hF9XnJDUCSTh9/UHriTt7y+fr+sP++PNehZKMgKYsqwDRKmlARApp/X1GqnkYX2gENbXx0ZFP7A+NdI2rC+UdX19FuI4JpypgAQMEMYKiQEKjKiWAaCJCgNApTCWKDI1QFruz+s7ZFKQQ0lUswdUUNWa5yJ2QKVa1wEt+8aLkRoAcOi8zoikVEHWzYgdmc5KBSTRmMpIdVHiDLJWn0RlmIQ9L4871EYJACziNta1vdMbTOz0GbAgVKiNdTVu/kV5X9Hsua5hNoU1QBnLVMxkQEjmGTz2a8kUUEiJ4iihEklAg0v1ORg1AdiAVUlcb5gTorImz5wBCqiSmjGJDymD7otmNKOzmmwF5BBNLy6kQgKcySQZHXHWrqCscdGuJogKiIuLspqmGuhv7XrpgASbz4xLXEiZEmY6JQ+oICTrpcYeoLhbnR1bDgx4MD1I8VWKWHE1eR4E+Myk6dEETKINhWRVcnrI80F8HxA9cSbRAuzbzuXkTEBJgR6UKTiABQl2mEYNWQDQDnU2lZuQoIDYN1/B00/sKd6UFSrOJLogrgCmPw5YJD11K2jvlP0AZOcDmintkHMH9eTeYIcSvGvkMpvnfUD0irOhC7W3Oanr1oTHXBuxqptOAmTanlerByTUS2H2iD4xdYWsOZ9jOmIezFvZDXECx5mpvRejLjpFDVDGHOy6gSYsO0WjG2d07q41m8nZ75BBWbm7UM8hzdZ2H2CSZ5+0oh14/vsG0MAOzXuAWaGg7iZlv54Bz8kPGhZPRVcyf+WTDOcM8T487QhIDl4JRiI6rMI8PPb11hOAgMXFYRpIQX0CqVuP51ued+8tZwzC+ty5c6PD+d07un34f8F/2R8O1/cDt//7FwL20/Vlgj7+AQ==);lineShape=1;fontFamily=Comic Sans MS;" vertex="1" parent="1">
                    <mxGeometry x="518.4484009026926" y="1036.1198987256332" width="26.821103315241523" height="42.924478656663226" as="geometry"/>
                </mxCell>
                <mxCell id="120" value="" style="shape=stencil(lVjZbttADPwavxJ7ktznNP2PAHEao24cOOn196VqrKKlrDHyJtszXpLDa7XLd2/PD6/7XQpv7+fT9/3vw+P78y5/2aV0eHnenw/v9rTL97t893Q677+dTz9fHi+fXx8m5PT04/Rr+oc/F16iLBMphb+XL2KkEv5/8/WCPx5eFnilWga8UtRteArEecAXSgLwQqkN+ESat/G5EKfRfpKyjS+J4vj/gRrCNyoen4H9lUmqwwcQTm6Uk8ML8FcjxRFfKSA8Uxj1VWoN4Bs1F89MytuElimMDscGE6hVqqNF5gIyqQlJHAg5kSRAMAPGE/Ls1VVCDLNIc5YK1YqP0FEG0yECglIYCWyZiMJkwo1CsJIgQqbIA0EKCVDOpNbRaQ23cimNPqhVHygeTcSjcqq9HVwlCFMdT2iFMgirWHsZy9MCzYBg9eaU/pDyOoF7ci4IqGNwIZUVAeSSJYJWT6ioZ1gPKCunwQl1tngmCHTaCHnMJUvHCMJqhOIIlhoorIGSMyn3M7ecdrnUEpwknKmMBdQiVZB8XHvUF4SEcklWJkXsQ+tNZUFAqSGx94iF06iTSeoyLXRA89kIXrjaa3DzhHGgN4bte/LBOa2UUD20VVgbJSScrJqAtTZUoqsRtJgAm8m0OgJ14yld2XvdULoG31ytRhXEta5GUGOo3FTUTojapdlsG06ITIKKOlJwUbIJgKP0SQITu3VGoUmWrs5pm1kR1Kg0n642lBREyYacE246E61YhdpYQZbAEc9dHXXgCIVT6V1l3k5KX0uvE9RPlKJ9rds6Ibu13q4NaBWwVHM7WYGL+np3sM0VhjX4TdeuDgIqztYjN3dj6YHeakzi2wbuM9asXfvGBWd3EfZ44HI2FYo3KAODbNNOzgM8RGP1m4PFCG6hfleP1sXAwFIqTgPtF6LrolFgj0cNo/Zfl3ggQfFpavgC2sVqd4u4cOKV+KC6Cf32O+O5D5YNfHL2VFgEq4vPjRoIfr+YroegdwWqTq/Uh8pGfNx12PABvV/45OuL23h7+HhX8nQ4Hi+vWpa/+3cr9tXlvUy+/wc=);lineShape=1;fontFamily=Comic Sans MS;" vertex="1" parent="1">
                    <mxGeometry x="542.8679893932119" y="1029.6671091765597" width="37.930411297167524" height="56.673134955825084" as="geometry"/>
                </mxCell>
                <mxCell id="121" value="" style="shape=stencil(7VnLbhsxDPwaXwmKep/T9j8CxGmMpnHgpK+/L1VD6xW1niDHArk5G82Kj+GQ0u78zcvD7fN+J/zyejp+2/863L0+7Pynncjh6WF/Orzqr53/vPM398fT/uvp+OPp7vz3821b2X59P/5sb/h9xnni2EDCf84PmKL79+DLefnj4Wm13DHVMqwveH0l54f1LlGN1wESKI8biPQtNwHekZcB4Jk4AUAhP+7gM2VgUojkRoA+CeE6IKpJPACiUAZRiolyHQEV7pAcpTFtKfYn24BIOQ+A7LpX24BKYgCRar0OyGLzUJgcAoSJSh7mIWdis0OiJABQqKYBUJkScFpdLAbg8Q7cY7IAhApKnAaRrUk1w0xXNzqt1ABcSsv7VgDxEBBGk0rpRm6ztVL1FhBAxSkgGR8yFIEL+1cADxK3AUhUsA+JLUBQTavThnxaUoAaGlYjMwoQUA8tcSP5SoBRaiLgLAAVUBKrSwpIiHxi6d12QPTWcgnv8iFT8DYPCKAVJ6PyKfmQkGU1yeyguUe6lCkaEXAwccVNMuNhB1IimJquoavtNqCS9xaAoqQqZKhRIyzRqtqaJwDaYangFSCCeqiFcrKAAoSsLjq3ABJ5DCjBAlCUHOukYNQ4wwbRthiLWt1CatycMIAKuaHvK9ECIjKp9PetABWZlO04s4rDNiLZ1t7igJxQKkxOBFBCjc7ZxrUCoVFAEgsQZFKYqlrrHLTFOg2iGgbI19gNWAHQAKSAuYSQuur7rEkRh1XZPNVcAEKjQYxsAUgsNa8yFalDMlB711wBMspDtWNiXXrGVYAJq3YI5HS1TasVIeKSlvBU1NAkPXIECygoSnlDNtD0/X6AswNQywzqcmXDadR4tfO7SSs9oHdeYrLKNKNOHe0s0IQH5KGN6wYQiNEwnfvpdjXfRzQxhd4E18MDAnyM6x/j+v8zrgdbDy1KIHGp2Mm1zffAhyyUJ3oXNN+HzpxVxaEJSw8E5iqkSRs2ybF1+o27E3M7o0cEpEspWYAeQjxiqyc3kk+NRDvEqWWptKEoxdDrawEwFVAPodjhpL0CUCNIH7WXa7WEb/qmuxOv5yJ0l6jMGcnnHSwgEXvpJaGfHrdPEMnqkitwh2LPNI57kW+un8ReNQFkjfugc1mOmK1j/5hjB+ViOi058oARbA8mrt81X1kuo2IznAu5D7KX5ei8yvaGlWGXdba+GAbS9aFgtRxk1dmRluEUIrY1cRekK8uzvdJHE8g7vwC8uVx/XD423B8eH8/fKtb/tx8n9NH5w4b//Bc=);lineShape=1;fontFamily=Comic Sans MS;" vertex="1" parent="1">
                    <mxGeometry x="707.0373306258957" y="905.9377360636017" width="86.27029191729578" height="103.30466580549455" as="geometry"/>
                </mxCell>
                <mxCell id="122" value="" style="shape=stencil(fZbdcgIhDIWfZm8zQAg/17Z9j85U606tdqz9e/tmZ0c0uJ47xP0I5JwEBl59bp8/1kNwn6fj4W39M76ctgM/DCGM++36OJ50NPDjwKvN4bh+PR6+9i/z74/n6ctp9H74nlb4nbmSKZeJCu5vngmZ6jzzNAO7cX8FVKEsBuBKrgKg9oAE8gkCbLeUhEoEQKSUDZDLeWYRKIl8MEDRmHwfyBrBG6Amyu4+kDxxMoB3jhwgYu7TVAsVkFcWCs4CTBEoF4RctKeOxHIf8IXYpikHikAIf+MNUW94AGSSaoAoFIE3AlOyeWU+p2E5S9yfQZcQILVuQOwZdJNoS9Ls3wA5u2XZTIHECqeJ9kDpSaauRiNVcAY1QhdBzeLBli5WazpkSsBLV25uRaqWRyFawTQzRRIQYirJzq5atkBqLfouwqUxLBepthWb10vrWZY6UOAeyKCCtDV625mm9gmUC4Wc3VLJMMIE1BsA2FW9JraVlQB7n3c9oMKhCLEvIM1zBPZ25/umNQ1tVEC2G+fFCC8g398O2hNQuQlVu752DBfA+q0ptnqO5JFmeuIuo9DY7KjY71UxdJV4EntifPWorW++R/dC4t7V3DlIB5cHx2bc7eb3yvX//QNFp+bHDT/+Aw==);lineShape=1;fontFamily=Comic Sans MS;" vertex="1" parent="1">
                    <mxGeometry x="791.334631376126" y="969.184552279527" width="4.918462918016016" height="4.910774964586572" as="geometry"/>
                </mxCell>
                <mxCell id="123" value="" style="shape=stencil(lVjLbhsxDPwaXwlR1IvntP2PAHEao2kcOOnr78utIXnFtafIbb3WLEVyhqS0k7u3p/vX/S6Gt/fT8dv+1+Hh/Wknn3YxHl6e9qfDuz3t5PNO7h6Pp/3X0/HHy8P59+v9snJ5+n78uXzh9xnHkWpZUDH8Ob8R4vzvxZfz+ufDy3q90PLfar19oUQAyJRnA5FJFAAapdlCrJTlNsC+V2aAZAoJADLFMAFS7Ju8DlDiOgFyoMC3ASIkbQYU0gYA1UepCCWwpWRBnLdUGikCJEo6AapQBVFKjcrsQ2NikGmLSZMZUKhWYEEpzT5opBSwD3PitEAfpHQiDLYGyxwwsZCTZxNKGfGbKcxhUiEFe7JMu7BmSA22Dc/0roUyMMCJQp4BTAlYiIF4TlyxsKIgmQ8zl4olDkjUBKnzlrKxC1Ej9Q0MQCZB5LOy5QCRIihkxfI2K26hI9C0yUVnpxc6gjw0K61zpkWpAYm25KkhFiUQ1lY9va2OIMU1JQ0eIGBLJshWPCCBsGqmwt6HAHzQurGgsHqbHl1tTaHXwhsCGpIfCKYGBGEmylyYkvSmdB3QOnVW3GgIUHrYByDDqqGjWA9AoYIyZ9WYPUCBqI1MTTcWEL+tjdaND0BBTboiV1GqIA+moMA+D4IATNUBLNNYoz4PRiYkOdkoSOEoYD2QHb8bBlgfd+NMhXVGB5nXogaCUIu6eEAFI5lplLeFCZFvzCKrKCHy6aYwXQacWwDntM1wiHy6CauRD3FpAchHAKYH13ezZQb4YG3ZzaG59mHies8Sys6ChQFUY2ua2U2JOEo29LmuWLCmrbO78l2t7wJAbP17A4C5FIu3sAQaTSfap50xkTHsWZfjwrBQe6CvAxJFB4gw08KUndMZKm45cczkM7IwctryMHPJEoeqhg26TnE2kqGWxWO0WNEbJY63LSvBzm6TrpvhpMDpxBravCMjV0Ps7tPUWG9cRUdRnzU76yrgxWbOkP6BG8udu7F3rxvLnZYZTgybA6JVGyQzfxYLVEBopNP3sjyCyrUZFQJkQvGzCz60tX40uCxHdxhK1S9HxyOjpWsEAR/YRtW/RB7ekER/Mo+Q9R++svnvenu43A89Hp6fz9dL6//9fZK9Ot9Fyee/);lineShape=1;fontFamily=Comic Sans MS;" vertex="1" parent="1">
                    <mxGeometry x="795.9131811249231" y="1025.9672466049874" width="29.402006545606607" height="56.33017755573029" as="geometry"/>
                </mxCell>
                <mxCell id="124" value="" style="shape=stencil(lVfLctswDPwaXTEE+D6n6X9kJk7tqRtnHPf194WqoWyC1mZyky2sSCwXC3DyD+/7p7fdJO79cj593/0+PF/2k/8yiRxe97vz4aJPk3+c/MPL6bz7dj79fH1efr89zZHz04/Tr/kLfxacBMppRon7u/wTyJf/f3xd4o+H15t4TpRjF8+BhAHAt9cNIJ4KWkGo9Ct4R1UgIJceUEkQIJALfc65fWIr6eA6QEzk/TZAHLk+hxSIwZbGY8iOSt0GKCdeekCiFAAgketXKEwhbwNCIulpLZkKOOkY2/caoDI5wFIq7fW6QoW05kC1X6FESoDW4oakHSVAq3JSDa26pQQAgWLPUi6wgJTE3OeQlVawgpLIaQCAk65awXnYEmCpZnLVJi1AGrWSE0trBEkrwB6cEDsIKEYaHh5cLU0IN9JgtKVk1VrWKr8P8BR7lvQoBZ2DlqizgARW0A1UbwEhAoC3VqmfKGgFbmK+YSkDaagQcm+VKnhYopXYbEmatW0BkgGo4HGJSk/rvEmg1lk5pqZVLKim1UmHEq1IS84amQIyUqsnH+yWGHirqlWSBVQEKBSMezu8QrW+pESjmmanWRt9e2JsGzyIKWMX+CTAWa+s0tSypT5j38p0BTmk1CpynX+uPNxvi2yHB00LdQidXrjXa43N0e8PD2Xo1FgcOoGxt7wmNMTloYQqPGqdyczUl9UGwAq5nes6MEXYd3WE61OOGTYU1XL//VDg2Dpoe54pwfed3Y8OaAn45Opx61Qs0GKCbT7KMGpvzNZW5aMDMyrF06GO9aHfkM6rKD7YVuVgt51HbjbxyL5YZ8ls4lFV8tDY1hO8XzJs523t7qA1K93ZxqMrhgytnKH+VRCpdzppV4778bGVxzW+gMY/x/cW4aFDfPYe+XG8PlwvrS+H43G5896+t5dc/Wu5IPvHfw==);lineShape=1;fontFamily=Comic Sans MS;" vertex="1" parent="1">
                    <mxGeometry x="831.845158857243" y="1019.3153266171182" width="25.716161986581124" height="54.66845395359781" as="geometry"/>
                </mxCell>
                <mxCell id="125" value="" style="shape=stencil(7VjJblsxDPwaXwlJ1MZzmv5HgDiNUdcOnHT7+/LVkPtIORMU7TE354UUlxmOlg3fPD/ePW03KTy/nI6ft9939y+PG/6wSWl3eNyedi/6a8O3G755OJ62n07Hr4f7899Pd4vl8uvL8duywo+zX4oUyuKVws/zl5io8+8vH88O+91h7ZApNeNQKQZgXyhGZx8SsK/E1dhnCiifTtEWkMYCV+05ENv8tQMd2CeSYOwDJWRfqIizD6A/3Mdyq/VB/jlQjz7/AuzZA6z9icA+U7f2TALqzQp/MvaFBOVTqdl6+1jgVXvbzxggwEtCE6MLYFDuxGw7xJQBZBrBOTBTyRCDbDHTLkMSCWUboRSYEmdqFoVaqKOxFGJL61YoCHDQGiwOvVECROJIMdsImiRqa/bMqEIBRNCe+KIZptSD51JJcHh68WJXIgSui59OdWiAfKLT5ZBmSG/Rrrt5K3BARca8Xxz0C2BrDBfFWvU1NBgiOY2/TO1rRQRbRAtwF9E2VbsrtEQVpKRAOLoq+yA3MslE14KgDlMEHny86tAqVTdyyg0AhK5X3UB0uDdrT4KtQVUAib0m0J1DhEqmKXm1bySo6DLof3HQDQY5yBC61YwWhLR23eq9jhzSyq56nyYHoAKiVGOfUkX0rpRsW3VGkZJJp2bpXXRXRCognq0KXEcRxNeg1ED01hHtlt6LGiMRyN5B2SUopTAOCqsBQtT4a4c26X1PY2iv7yiNou2S6khEp5/ggRNtK+DScny2Diu5vZ4TZYv0sgOACJN460QJWL95GVPtjgC2WKfDjEAZ0wNntxnpGTwgh0kzlpgA5/9yx0AJvd8x3u8Y/3bH4EGAi0Mec33dYTo9R4EY6JXBiaOCLCDCQgobQVFD0sUTCgpbAzuC3oqapbXOGerSfGVQB3iL6eNosI6A5HcCTmuAEfLYuNddQvekRMlyaRkeFCFO1BAowIprdltIw/IVxvFmRT60My8puQhvPAq9/YqkP/68QT3s9vvzE9b6//7NSj+d37v49hc=);lineShape=1;fontFamily=Comic Sans MS;" vertex="1" parent="1">
                    <mxGeometry x="843.4265783020594" y="1027.128707169349" width="21.138203189485992" height="25.60534443922423" as="geometry"/>
                </mxCell>
                <mxCell id="126" value="" style="shape=stencil(lVfLctswDPwaXTEkQYLkOU3/IzNxak1dO+M4ffx9oaq0TUjaTG6yjBVJ7GIBDvzwtn963Q3BvV3Op++7X+PzZT/wlyGE8bjfnceLPg38OPDDy+m8+3Y+vR+f59+vT1Pk9PTj9HP6wu8Z5wNlN6GC+zO/ceTl34uvc/xhPN7Fh0w1dvGeat6Oj464dvGRHPh+8iR9vJD47XgJFPv42ja4Gp813vf7j+TBAsW3/V4BhXIFgEKhdAA9MoMjVybJHYAdBQaATDH0AKHkAKBS5p4EJgYA7xy5XhbJUQFpqoVKv0TSPKBTCwVDdKKUYJoMQLkMQHqlUunzmgsxyGsR4l4bhVt1rAOCZU7J5wLUp0roAcqlQwBdoRdTxWfIWr69NpT8AOQqYgtaAQUQJ7yoOC05tMLalgQwnTL5xaELWCHFtoG7tGaQ1qS8Gh6EIrANBfzf8RWQyIF60C1ZgH4CrSALgFoVkHeqFA1AvRNIQ60yiwUEIG+VRuAFAK1QF9LwlEGWpgr29tACtqQF5J1Na8GAag6dyAMtKcA0RJWGBABQKzU8ZNyCtKMYQIVakrICyGBLshDfnaGvI/yCCHUBsIS6u1u4AMprSi2Ld0XtUY1G23iViIpKjimZok5Nj1srBEN1hG78aYBWUO6J0HECzQJq37F34yxtgNpSX+nTqp9AxOn3Um+uqhZkfdo0DXHqz3CF2tryFaCKR4BiZ74YG5VbZ4i9NLjAKXGqUTNiXat2y8mM+ELBWhLLgw7SyFyjt+bq8WQcwsLv23yzfmZb0deKXd+PbaEZjj5s85ObMa8PlJT6w6qqgeac7SMJSnQxrEbYOZ21Lv4g3NRwoATUrPch470kgFZuwr3dv1DzSG2IuIVH1P6oBhOO/MrrbW0Rj2j95O3x43h9uF1VX8bDYb7p3v9vr7b6ar4W8+Nf);lineShape=1;fontFamily=Comic Sans MS;" vertex="1" parent="1">
                    <mxGeometry x="856.2066481389984" y="1013.831894266481" width="22.239884955583637" height="53.89422098786088" as="geometry"/>
                </mxCell>
                <mxCell id="127" value="" style="shape=stencil(lVnZbhw3EPyafW00b/LZcf7DgOVIiCIZsnL9fZpZcDQsLmvht9WINeyz+phL+PTj8cv3h4vXH+9vr78//P309f3xEn65eP/08vjw9vRuvy7h8yV8+vb69vDb2+ufL1+vf3//0k/2X3+8/tXf8M8V50RbB3n99/ogFknu/ye/Xs8/P72czkfROp/PksP+fJEW5/NJat2fdyqtIkATAUSpoEGURCRyTSKIFKTlPcB0zgkBXveAoOIB4CUSpUMWdTPASfPEC05qREBkbisSKgKUKJ28FBBJpRAdUpGsCAhtD8he3AwIbQTLbUAW5xGQidK5oeMM4IjSxZQGkSqP7iQhI0CJlUqRAjpYvhGlS5PqEKAkNGqQAIAsoRBAklZmgD0hSte6+CGJJ2ZtuugQqFlbkARmPQL+NiCNQDgAKpFYyW7wFW9g0docpqg34iOeNiul2Urec0AeCTkA7ojfnafzTAIuD0PfBrhB7QcgDiG3gDBbSSIhvhrFz+ezRGLUWhYNPKWx2iTNCeoS1aD5EWiHF3R4fhdJHvwcR4m8DSios9W8zEQyDpqVtmxwrGCpigK1+pHkuyvCDDA6D0zrgqRh7FyY1lbFZ2rNVTzL0DgoYgCKxRKJ7u65WaRSJTC7KvJY9UPIXTCBlSwelejQw3UmDbuzEOLrXDzHhnnGs4QzpRsCGksIP4rBGcDI22Ej0EVi5UGx1Wh1hOMOEOfQaJmWBwP42XHt4JEdABxnweKYlXTU2JPjHPP00oV+0PmWKWelLVgok3nkGeN/1v30YK54A2tmLPiAK00HZWa1NngOPsuQyEIjjoQ8zOpGwO8AEfIh0DLdbwBAouOJAaBMd2pjJShgibPwpqzhR0KeEoiSgB/EeNSsD0LfBtOSo4ld4bBAmBJs4OgJMbOx5Sgby26kXKQTSk9quMHz5kRxLOvkeoeYIIPacP6W+pYcLTypfxKwNA/dbiyprZWeb7CqyOYHUxE6Jqu7zErNYVeZ45hOt733LFKKNDR6IMz0bcNmZONAQhawSbGyZiMMI55GGto72PtgjvMjpXaVHZt18zRjAaOhmSutTaw8RdustLszizZcIjjeiNpoCcTE6d7aKajTeo/4YFV0h8UiRp7njUYepeAIPN6NNXx/5VOojZBznNqwERggjhb4ANzp7Atyns1LFFBxO9anUCZSHSY5pQ6jYcs1qOkxSGUAG4yXdRoF6Ej208KONjIVszlmugLpC4pl50jL4cIXBnBsK9OGEc9bSraVKVh7OoDUnpKWpWOivN1XUYtZC9uOtWVhdwdw2OSsAzFrX9gVNKsnSveVYEZAJhTWl45gpTJ2Tbu1JpaSQitD36sqAhjr9dUs5EOlNwTFpiE2OmtY4QBPJ6XEbYUDK7TjgDT+fQIw1nAO2xLzTGVcjxvBFOiWZVkGWI/BeM/dOM+8toxv/TyRX3Hva+cTfX9c5HH0/Sh/oP25jnH2ZP9CPKy4BTAHs45qWSglR2u5jk8wpxBlKysdrc0pB9juRnHMsyRjm33FDLDz7GvGMirEQnexP/tV7P55+/HxCe7b0/Pz9Qve+f/4yc4eXT/3hc//AQ==);lineShape=1;fontFamily=Comic Sans MS;" vertex="1" parent="1">
                    <mxGeometry x="626.9697966932263" y="1038.1533165818119" width="132.6211844859623" height="42.37870942814904" as="geometry"/>
                </mxCell>
                <mxCell id="128" value="" style="shape=stencil(lVfZUhtBDPwav6qk0ZzPJPkPqjDBFYIpQ66/jzau2VjC2xRvi1HP6OzW7PTm5eH2eb9L/PJ6On7b/zrcvT7s9NMupcPTw/50eLWvnX7e6c398bT/ejr+eLo7//18u1guX9+PP5cTfp9xiVpZQIn/nH+oiar+++XL2f7x8HRh32k0Z1865bptn5Q4ACpx3wZoJ1XvkRADj3KZDq+AQly2AUUpZQ8YVNM2oDKN5AAtz7RdB3Ti4QGDSt4GLOf5LHWlwaAMiYZ4QCPGgJpjDAkEbQBln6VKDd0gpG9aowCA5WT43itMjLLUKfkbsuC0Vkr+Bs3EoFubUPO9lITGAJW2G6oDDMqolcrstLUMlND5hbovWyER6E/3nafYvlP1KRXKYDobz3RMe6YMzm9KlYM9atOlYhrsFdn3eL7MHrnepDzDWwtMHU2BUPUdZJMK6mVTw34u62zyrfOL93+QoCFjEp9/EZxQmxnvkCRI2K1EKhIlBSmyEkuKgAxyZD1UcnRpAJesSVVi0A10qU1BqJrwlKGtMWveJWPwd8Y4cB11oFHmUPY0ofPCTQEJEU/d3UqpeH8YcnUz2ZdgD3mxRG7nWfTr9o16DfYd0cqICpsmc29qTRxLODYftR+k3v8FAAIeEuVVZU7qdYC+IeoxpeQ6oMQU5UYD5HS0yWwXmxcaszGillmbI4DwSuarmhWcJsurj7rj0bcgAl8P6zwwaZZX9lGPOnt3iyA5sBFjjao5Ds/IUKRKi6Jp/dVB1LYH9bDd4bxmjS4tQgdu0FW218rZggj6VVqUBeMotD8aRdcRb2CwKhhFJ44AtGX3KCOLEiFVoM7RHu0KZb5TLuxRAKvqXfiPdsE0N7PVHm+z6zNotce7F0/ZvnjmINJ7M8y1wZbgedrFAwGRNsfV1wYJiYJlI9jrlPWNfH7sKfu+vX38fzffHx4fz8/uy//Hd7b9dH6j6+e/);lineShape=1;fontFamily=Comic Sans MS;" vertex="1" parent="1">
                    <mxGeometry x="782.0391370765685" y="981.8695176363508" width="31.518015794088715" height="38.26821605619539" as="geometry"/>
                </mxCell>
                <mxCell id="129" value="" style="shape=stencil(lVjLctswDPwaXTEEwec5Tf8jM3FqT1074zh9/H2hqlRFSNpOborDFbnAYgFqkIe349PrYfDu7X67fj38OD3fj4N8Grw/XY6H2+muT4M8DvLwcr0dvtyu75fn6e/Xp3Hl+PTt+n18w88Jlz1FN6K8+zX9Ukj4zw+fp/Xn02WxPgVy0q1nR87vA2KgGHqAp1z2ASERxx4QqYAjSSZXe0BppDYBSpFTB/COUt4HcKXQc/DS9twDlJ6DOBIBRxJK/Q7KqoAoKYfaAzRuDnCQQKF0gDEzEQCUdB/W5CEgBGLuAZUqIB1mqTVATjDTkVuaZrF6KiDTSbXZZ7qkxmobUFc7aB4Ah+pXO1TyYIcaqK4AcIdMoa/Q6qA0aiXupaGHRDWtgNpLowpVxGEl7xopIw6FsgFkEqClmlpeZ0ChhMPqDUBTiUgzeWtkqhYgplI2tkCZK5GCtwAGZypCXG2YKjDXwpRNqhMJCJMCvDlSgNangGS04amCzCkHZwDcBLwXJd+XnOqbEYfSGs6igv76816qXbQAjwCrJqeAiNSXKCXLIaAaVTVHGyXkZKPUeq/UGg1ASws1L4qUUc1pUMwWWoUoTJliHyalBb1PD7AqCEnQXX2wANRSxsSuahTK9aOAHOzwoAAHopTiSht4PIlKOtk8BNRHXav5RY16sINIC+Ks7wgzLdxmixngmn1ujyc6k5nWLngA0tnCDA+pvWJb35lSn7hYYFEzt7Fznphq60rbibP1E7g51XaQrJJEXQFQXtWnBq2AYuDWABdTK+xXlHsZcYAmpikwNqkhQ0bstVKMc1NEASqWccYDZSY2GWjtbrtw6urmQAV0z5Rtb3PNAfeGQ3MNwAnIbN3LQafQu1i15xFw/ry6Wjk4j+RoxzZuL9hen1r4ZsXBTp5z60hzBZCAJqjrY6/QAFuarvfmCgN9Uc8fzQ0GnydaD8pQD2MrELO+AP1/9K79//X68O9i/3I6n6fvAsv/2w8B+tP0EUEefwM=);lineShape=1;fontFamily=Comic Sans MS;" vertex="1" parent="1">
                    <mxGeometry x="802.7774050496259" y="1095.4037503652569" width="31.329778005936436" height="54.72024014321984" as="geometry"/>
                </mxCell>
                <mxCell id="130" value="" style="shape=stencil(lVfLctswDPwaXTEgwec5Tf8jM3FqT1074zht8/eBqqEswtJ2cpNlrEAAuwA4yMPb/ul1N3h+u17OP3d/Ds/X/SDfBu8Pp/3ucrjq0yCPgzy8nC+7H5fz++l5+v36NFqOT7/Ov8cv/J1wTCWMIM8f0wsXqJR/b75P9sfDaWEfyMfOvhDLtrmLFHp7JuZte/1crp19JMnb9pIoSH/+RBUAQiBOHUA8ORBByJRdBwhMMW0DIrcDzIA5qHVAIu5rkIQ8qEGsFH0HyLF9YgtgqlwSZVCGGKiWDlATORBDcJR6gGNcaXE2TZUpgCAk2CCylhp4GEvdpymldsr1qDPFnkyxUAQeUqVqAAILUWL73syN3AS1DihUeg8hUQQeqifvLaAAulYVmAEUWOqaqfSCUMYLAlSrUc2Sd6Bp3KgzIxIJqNzooifTqBEUdW7UmbnhKYAzaZqCEWmgBPqGFkL6zqfsQ4LQUhtBKAD1PiVTMkeKUNXFt78XMTDIUlFF9qpODgadK3lTuEIJ8Dtr0KbfR9gF1EPpjxQ10UhyjrJpx5USSmuwXLqNgHVAtmlVySVEPkfuHoBEHVqIiyNBQCa+CzqCoFVAVnFzI9kC2NanjQQJqNo6jM0VeSi2Gyv5IvKQbJZ0jlbUNcQ2JhUQYuuXAUrv3LM1c8vb+kTJrbsvRjvaxzSJphuraDMgnxIhGICHR9LRzj1gVDkIWordEVOBA0KEiiGfznrgwWdbaamwVY5bZ18HP28T6yPornC6yTKaWdEqzitbQdC6Z5u0emltYR3gKbGNQYCAnFKtn+y6TMPJfhdChH0sk4vWHm6Vbatd2AtaEdsIXwQcwPm9bav6BZQgtkuulgzRjsmb/DA5wLq7LUZZhbYYbtVZ3GUitP/a3e3/9vpwuyi+HI7H6Z65/N9eLPXVdCmVx08=);lineShape=1;fontFamily=Comic Sans MS;" vertex="1" parent="1">
                    <mxGeometry x="831.7002057893103" y="1103.937346508512" width="28.911054165217763" height="30.654858278126326" as="geometry"/>
                </mxCell>
                <mxCell id="131" value="" style="shape=stencil(lVbbUuswDPyavGp8lexn4PwHMxSaobRM6eHy9yiEhMhNd+DNcbSWV1rJ6uLVy/b2edMF93I6Hh43b/3dadvF6y6Efr/dHPuTrrp408Wr+8Nx83A8/N/fjd/Pt4PlsHo6vA4nvI84zxTdgAru43snk/NfO/9GwK7fLwBSSbwBOGhfMnFs7EUu21dPPhl7JleBvZ7PLYFYAKCQBAMIQgw8eKcMbYySJ4nARaVo75SVRAAAplIs6UoORSlQsVfSvGSUBqEsBlCYQgYA34apFMogTJKpnHsAHMS1yhg4pMsAZsq5jZIHpDmRO88DuBJHSlbcQ6aBmNQD28SpmARxmH8v5JqANCRMafqpB8RZ1IHlrPUG0lZiy2BW+7q9arsa+0gFEK7prMF4qsBBFSrWgXqIyEOdUjTfiKkyBlgP2VNE9SzTjeccJOxBSVsdCVPCUW2EVxIloNQhbZaDlmcEOlKAuL8AfGlbzKIRriNS22M00gl21qlnzQDGHYCK1ba+FojDLM1FVD043xM3actTXlbtXatt1tcInH/2kOQ8VdMF+6YHpwxbamhVFPMUsVV7VXFTajKpZF1ELV+NWADt0Yf2Mdd5owICfx5HfgHQxc/0c9/vduPwtPzfTku6NU5a8eYT);lineShape=1;fontFamily=Comic Sans MS;" vertex="1" parent="1">
                    <mxGeometry x="848.0177148714972" y="1095.9001025185078" width="11.295662038535164" height="4.65853139857963" as="geometry"/>
                </mxCell>
                <mxCell id="132" value="" style="shape=stencil(lVhJcttADHyNrqjBYNaz4/zDVZZjVRzLZTvb7wOWMgwBku3oRpFoYRpbgzzIzdvj3cvxEMPb++v56/Hn6f798SCfDjGenh+Pr6d3vTrI7UFuHs6vxy+v5+/P95ffL3eT5XT17fxj+odfFxwLtTahYvj99w6Fy43PF/un0/PCPqp9N/aZiuzbS6Rg7TmQMAB0CtUC1EPeByR9zAagFErfB2SmLhbQSACH3ChEA5BEtewDSiK2pBNTBhyqxiRYQKUWAaBQtKSzUAWAxiNNM6BRB4luhaotjCKUwz6gM0XLoVSSBABK0XKoQgyOxCFQsC5qH6nZdpHGHw5Ay+OU26zjSOwA9EAJkCid2JJQnxWQyJnE1vcUB1BMSShlC+iUQX3HSFw8AKWaG2W+xgOvOTRIWqdMWJEuIHHM1BxprXiQhwkg1+RhOpIDaKBBaUykXZQiPlKj5DwwJUBaE+ejxLC8dfb6KPEYt9uAvkocfzS+Y/GkcwWARDH6sKJJJpmC45BhWNVDWZUGmvciQ9EW1RqQBGnL2/HdZ1HaDmslXrUoEghV0WSjtJht28XUqbSVC3AmLkPTliRQU88CsgwTqm+dM9EnAmmQ9mi143tKNeIQh+IsiwkdKY1hvSxXRFolynFguG3EsJozTAwSF7VcgwfApr4WkOYgLjSLQX3n4pu61bESbYtcHQ02A+ZDbq8nKgc2DyrUDXho2nKWQ53Xum0PmZKdxqrEDQE0r9ZDyWOV3SZd/JpYNNMoSrpX2lpSrUejT/PANkqpj218O9Oq425NFLhX6mOxg0kK9CB1TMYZECgjgQhe5LR+GY2+NNplHn1t5H5PRp3uTpMKrwLFDQHK4EQ8kjQHlTqIaaDqdnv48qCtaMtO4HxZbbhxFNWOeWzOHK237LPLMLlx1PswD9SRMlNuzhwlVsdWd+aM3pF8s2DB7H69C3CI6lupW6XCWGT+U5rCYL+nrle9Z39srxf/XuofTk9Pl28Cy+f+I4DeunxAkNs/);lineShape=1;fontFamily=Comic Sans MS;" vertex="1" parent="1">
                    <mxGeometry x="861.5583509417852" y="1094.1442136760434" width="24.41134025273258" height="63.377630003776275" as="geometry"/>
                </mxCell>
                <mxCell id="133" value="" style="shape=stencil(rVbLUuMwEPwaX7skjZ5nFv6DKsLGRTahQmCXv2e8LpuMwL2XvSnOtObVPZpBbl7298+7IbiXy/n0tPs9Plz2g/wYQhiP+915vOhpkNtBbh5P593P8+n1+DD/fr6fLKfTr9PbdMOfGecjfJhQwb3PXxyi/P1wN9sfxuOVfcio0dgntLRtHwPEGXsfEMs2IBVE68AXpLANqAm5WECF5G1AcwjZADRn5qFFiPWgVSikSE0jth4kQxigIdkqxUoB3jk4i8gekWVd0ZoBlMjLlJGqAUyVZgCBEwPQwgVHOldRvAU0OOKhRrjSAwphX9G62qQ1KxZSSSiWfVOQJKQS0CygVATSubK2aW1cWsqwCbBJp7CwZTOkjn1t6f1m0rbToSEyQEO2SYcAzzr9ZcqoRhPx8Fn1FdC4gpR8XQ5KPkINJUK2IUlAZVNAuWnZGjUr4uEbjepwcyymtewrmRx85YPGSq5qI5hGVfM26+b5KNNh2Wm0oLLOpb6uV3X4T4gkqJYdmlcjaUtZyrjWKdJmK5+74afTkmlIFWZFmgsacfAlIJ0C7A2KyJ29h5CpEZBt2xK/38NZ5ukDFAnz3DJGV3u3dHHDvpOCqk3o/d2DOMk5svj7JUD1TfoliKnjHBWzjkjL0cQ53W8MHomNCo/Qb2Hs+mlrk86ebW3/3vL08LkiPo6Hw7xhXv/fr5T6aV5H5fYD);lineShape=1;fontFamily=Comic Sans MS;" vertex="1" parent="1">
                    <mxGeometry x="847.6975638810068" y="1095.4365553596033" width="19.115640509946964" height="6.730707409365574" as="geometry"/>
                </mxCell>
            </root>
        </mxGraphModel>
    </diagram>
</mxfile>